<svg width="91" height="101" viewBox="0 0 91 101" fill="none" xmlns="http://www.w3.org/2000/svg">
<g clip-path="url(#clip0_1_81)">
<path d="M23.1808 73.9277V68.8633H26.3394C26.5526 68.8633 26.7191 68.9224 26.8403 69.0393C26.9615 69.1576 27.0228 69.3105 27.0228 69.501V70.6264C27.0228 70.801 26.9659 70.9626 26.852 71.1098C26.7381 71.257 26.5628 71.358 26.3248 71.4142C26.5628 71.4691 26.7454 71.5686 26.871 71.71C26.998 71.8529 27.0608 72.0087 27.0608 72.1789V73.2813C27.0608 73.4818 26.9995 73.6391 26.8783 73.7545C26.7571 73.87 26.5891 73.9277 26.3774 73.9277H23.1808ZM25.7553 69.9512C25.7553 69.931 25.7495 69.9122 25.7363 69.8949C25.7232 69.8776 25.7042 69.8689 25.6794 69.8689H24.5024V70.9193H25.6794C25.7305 70.9193 25.7553 70.8919 25.7553 70.8371V69.9512ZM25.7553 71.9322C25.7553 71.912 25.7495 71.8933 25.7363 71.8759C25.7232 71.8586 25.7042 71.85 25.6794 71.85H24.5024V72.9682H25.6794C25.7305 72.9682 25.7553 72.9437 25.7553 72.8932V71.9322Z" fill="#A56E18"/>
<path d="M28.7767 68.8633H30.0982V72.8326H31.7308V73.9277H28.7767V68.8633Z" fill="#A56E18"/>
<path d="M36.2651 68.8633C36.4418 68.8633 36.5863 68.9181 36.6973 69.0277C36.8083 69.1374 36.8638 69.2802 36.8638 69.4548V73.3332C36.8638 73.5078 36.8083 73.6507 36.6973 73.7603C36.5863 73.87 36.4418 73.9248 36.2651 73.9248H33.6307C33.454 73.9248 33.3094 73.87 33.1984 73.7603C33.0875 73.6507 33.032 73.5078 33.032 73.3332V69.4548C33.032 69.2802 33.0875 69.1374 33.1984 69.0277C33.3094 68.9181 33.454 68.8633 33.6307 68.8633H36.2651ZM35.5437 70.0406C35.5437 69.9858 35.5159 69.9584 35.4604 69.9584H34.4207C34.4061 69.9584 34.39 69.9656 34.3754 69.9815C34.3608 69.9959 34.3521 70.0161 34.3521 70.0421V72.7662C34.3521 72.7864 34.3594 72.8023 34.3754 72.8152C34.39 72.8282 34.4061 72.834 34.4207 72.834H35.4604C35.5159 72.834 35.5437 72.8109 35.5437 72.7662V70.0421V70.0406Z" fill="#A56E18"/>
<path d="M42.3691 72.0361V73.3491C42.3691 73.5136 42.3092 73.6521 42.191 73.7618C42.0712 73.8714 41.931 73.9262 41.7689 73.9262H39.1944C39.0323 73.9262 38.8951 73.8714 38.7812 73.7618C38.6673 73.6521 38.6103 73.5136 38.6103 73.3491V69.4332C38.6103 69.2788 38.6673 69.1446 38.7812 69.0321C38.8951 68.9195 39.0323 68.8633 39.1944 68.8633H41.7689C41.931 68.8633 42.0712 68.9195 42.191 69.0306C42.3092 69.1417 42.3691 69.2759 42.3691 69.4289V70.7303H41.0475V70.0248C41.0475 70.0002 41.0402 69.98 41.0242 69.9642C41.0096 69.9497 40.9935 69.9411 40.9789 69.9411H40.0151C39.9596 69.9411 39.9319 69.9685 39.9319 70.0233V72.7532C39.9319 72.8037 39.9596 72.8282 40.0151 72.8282H40.9789C40.9935 72.8282 41.0096 72.8225 41.0242 72.8095C41.0388 72.7965 41.0475 72.7777 41.0475 72.7532V72.0332H42.3691V72.0361Z" fill="#A56E18"/>
<path d="M46.7588 73.9277L45.757 71.9914L45.3394 72.6594V73.9277H44.0178V68.8633H45.3394V70.9713L46.6682 68.8633H48.1417L46.6609 71.0622L48.203 73.9277H46.7602H46.7588Z" fill="#A56E18"/>
<path d="M53.3725 73.9277H52.0509V71.9163H50.798V73.9277H49.4764V68.8633H50.798V70.7996H52.0509V68.8633H53.3725V73.9277Z" fill="#A56E18"/>
<path d="M56.5311 73.9277H55.2095V68.8633H56.5311V73.9277Z" fill="#A56E18"/>
<path d="M62.1503 68.8633L60.6243 73.9277H59.348L57.86 68.8633H59.2721L59.9862 72.0823L60.8448 68.8633H62.1503Z" fill="#A56E18"/>
<path d="M63.4865 68.8633H66.8423V69.944H64.8066V70.8371H66.5677V71.9178H64.8066V72.8326H66.8423V73.9277H63.4865V68.8633Z" fill="#A56E18"/>
<path d="M28.2466 79.021H29.3447V79.4437H28.7445V80.2763H29.2337V80.6817H28.7445V81.5402H29.3447V81.963H28.2466V79.0224V79.021Z" fill="#A56E18"/>
<path d="M30.4633 80.3066V81.9615H30.0442V79.021H30.4589L31.0241 80.7899V79.021H31.4432V81.9615H31.0328L30.4648 80.3066H30.4633Z" fill="#A56E18"/>
<path d="M33.5679 80.8678V81.634C33.5679 81.7408 33.5358 81.8259 33.473 81.8908C33.4102 81.9557 33.324 81.9875 33.216 81.9875H32.6012C32.496 81.9875 32.4099 81.9543 32.3442 81.8894C32.2785 81.8244 32.2449 81.7379 32.2449 81.6297V79.3557C32.2449 79.2461 32.277 79.158 32.3442 79.0917C32.4099 79.0267 32.496 78.9936 32.6012 78.9936H33.216C33.324 78.9936 33.4102 79.0253 33.473 79.0902C33.5358 79.1552 33.5679 79.2417 33.5679 79.3514V80.1046H33.0787V79.4639C33.0787 79.4322 33.0685 79.4163 33.048 79.4163H32.775C32.7545 79.4163 32.7443 79.4322 32.7443 79.4639V81.52C32.7443 81.5489 32.7545 81.5633 32.775 81.5633H33.048C33.0685 81.5633 33.0787 81.5489 33.0787 81.52V80.8664H33.5679V80.8678Z" fill="#A56E18"/>
<path d="M35.31 78.995C35.3977 78.995 35.4707 79.0239 35.5276 79.0801C35.5846 79.1364 35.6138 79.2085 35.6138 79.2966V81.683C35.6138 81.7696 35.5846 81.8418 35.5276 81.898C35.4707 81.9543 35.3977 81.9832 35.31 81.9832H34.5478C34.4572 81.9832 34.3827 81.9543 34.3273 81.898C34.2718 81.8418 34.244 81.7696 34.244 81.683V79.2966C34.244 79.21 34.2718 79.1378 34.3273 79.0801C34.3827 79.0239 34.4572 78.995 34.5478 78.995H35.31ZM35.1158 79.4481C35.1158 79.4336 35.1129 79.4221 35.1071 79.4134C35.1012 79.4048 35.0954 79.4004 35.0895 79.4004H34.7639C34.7522 79.4004 34.7449 79.4062 34.7434 79.4178C34.742 79.4293 34.742 79.4394 34.742 79.4481V81.5214C34.742 81.5214 34.742 81.5359 34.7464 81.546C34.7493 81.5561 34.7551 81.5618 34.7639 81.5618H35.0895C35.0895 81.5618 35.1012 81.559 35.1071 81.5503C35.1129 81.5431 35.1158 81.533 35.1158 81.5214V79.4481Z" fill="#A56E18"/>
<path d="M37.3778 79.021C37.5019 79.021 37.6012 79.0585 37.6757 79.1321C37.7502 79.2057 37.7882 79.3038 37.7882 79.4264V81.5561C37.7882 81.6787 37.7502 81.7768 37.6757 81.8504C37.6012 81.924 37.5019 81.9615 37.3778 81.9615H36.4169V79.021H37.3778ZM37.2902 79.513C37.2902 79.4668 37.2668 79.4437 37.2201 79.4437H36.9164V81.5388H37.2201C37.2668 81.5388 37.2902 81.5157 37.2902 81.4695V79.513Z" fill="#A56E18"/>
<path d="M38.5899 79.021H39.688V79.4437H39.0878V80.2763H39.577V80.6817H39.0878V81.5402H39.688V81.963H38.5899V79.0224V79.021Z" fill="#A56E18"/>
<path d="M41.2885 81.9615V79.021H42.3604C42.448 79.021 42.5195 79.0484 42.575 79.1032C42.6305 79.158 42.6583 79.2302 42.6583 79.3167V80.1406C42.6583 80.2575 42.6291 80.3412 42.5706 80.3917C42.5122 80.4422 42.4378 80.4739 42.3472 80.4855C42.4378 80.4999 42.5108 80.5345 42.5663 80.5879C42.6218 80.6413 42.6495 80.7192 42.6495 80.8202V81.6643C42.6495 81.7509 42.6218 81.823 42.5663 81.8778C42.5108 81.9326 42.4407 81.9601 42.356 81.9601H41.2885V81.9615ZM42.1618 79.526C42.1618 79.4798 42.1384 79.4553 42.0917 79.4553H41.7879V80.2705H42.0917C42.1384 80.2705 42.1618 80.2474 42.1618 80.1998V79.526ZM42.1618 80.7452C42.1618 80.699 42.1384 80.6759 42.0917 80.6759H41.7879V81.5258H42.0917C42.1384 81.5258 42.1618 81.5041 42.1618 81.4608V80.7466V80.7452Z" fill="#A56E18"/>
<path d="M44.7319 80.8678V81.634C44.7319 81.7408 44.6998 81.8259 44.637 81.8908C44.5742 81.9557 44.488 81.9875 44.38 81.9875H43.7652C43.66 81.9875 43.5739 81.9543 43.5082 81.8894C43.4424 81.8244 43.4089 81.7379 43.4089 81.6297V79.3557C43.4089 79.2461 43.4424 79.158 43.5082 79.0917C43.5739 79.0253 43.66 78.9936 43.7652 78.9936H44.38C44.488 78.9936 44.5742 79.0253 44.637 79.0902C44.6998 79.1552 44.7319 79.2417 44.7319 79.3514V80.1046H44.2427V79.4639C44.2427 79.4322 44.2325 79.4163 44.212 79.4163H43.9389C43.9185 79.4163 43.9083 79.4322 43.9083 79.4639V81.52C43.9083 81.5489 43.9185 81.5633 43.9389 81.5633H44.212C44.2325 81.5633 44.2427 81.5489 44.2427 81.52V80.8664H44.7319V80.8678Z" fill="#A56E18"/>
<path d="M46.3324 80.1623H47.0727V80.8895H46.3324V80.1623Z" fill="#A56E18"/>
<path d="M49.1318 81.9832C49.0193 81.9832 48.9332 81.95 48.8689 81.8851C48.8061 81.8201 48.774 81.7335 48.774 81.6253V79.3557C48.774 79.2461 48.8061 79.158 48.8689 79.0917C48.9317 79.0253 49.0193 78.9936 49.1318 78.9936H50.0795V79.451H49.3041C49.2836 79.451 49.2734 79.4668 49.2734 79.4986V81.4854C49.2734 81.5142 49.2836 81.5287 49.3041 81.5287H49.5947C49.618 81.5287 49.6297 81.5142 49.6297 81.4854V80.5793H49.4618V80.1652H50.2197V80.5793H50.0737V81.6253C50.0737 81.7335 50.0415 81.8187 49.9773 81.8851C49.913 81.95 49.824 81.9832 49.713 81.9832H49.1303H49.1318Z" fill="#A56E18"/>
<path d="M51.5427 80.9818H51.3748V81.9615H50.8768V79.021H51.8815C51.994 79.021 52.0816 79.0542 52.1444 79.1191C52.2072 79.184 52.2393 79.272 52.2393 79.3831V80.6197C52.2393 80.7033 52.2188 80.7755 52.1794 80.8361C52.14 80.8952 52.086 80.9371 52.0188 80.9602L52.2437 81.9615H51.7501L51.5427 80.9818ZM51.7501 79.487C51.7501 79.4582 51.7399 79.4437 51.7194 79.4437H51.3748V80.5764H51.7194C51.7194 80.5764 51.7311 80.572 51.7399 80.5634C51.7472 80.5547 51.7515 80.5461 51.7515 80.5374V79.487H51.7501Z" fill="#A56E18"/>
<path d="M54.0384 78.995C54.126 78.995 54.199 79.0239 54.256 79.0801C54.3129 79.1364 54.3421 79.2085 54.3421 79.2966V81.683C54.3421 81.7696 54.3129 81.8418 54.256 81.898C54.199 81.9543 54.126 81.9832 54.0384 81.9832H53.2761C53.1856 81.9832 53.1111 81.9543 53.0556 81.898C53.0001 81.8418 52.9724 81.7696 52.9724 81.683V79.2966C52.9724 79.21 53.0001 79.1378 53.0556 79.0801C53.1111 79.0239 53.1856 78.995 53.2761 78.995H54.0384ZM53.8441 79.4481C53.8441 79.4336 53.8412 79.4221 53.8354 79.4134C53.8295 79.4048 53.8237 79.4004 53.8179 79.4004H53.4922C53.4805 79.4004 53.4732 79.4062 53.4718 79.4178C53.4703 79.4293 53.4703 79.4394 53.4703 79.4481V81.5214C53.4703 81.5214 53.4703 81.5359 53.4747 81.546C53.4776 81.5561 53.4835 81.5618 53.4922 81.5618H53.8179C53.8179 81.5618 53.8295 81.559 53.8354 81.5503C53.8412 81.5431 53.8441 81.533 53.8441 81.5214V79.4481Z" fill="#A56E18"/>
<path d="M55.6432 79.021V81.5171C55.6432 81.5286 55.6462 81.5388 55.652 81.546C55.6578 81.5532 55.6637 81.5575 55.6695 81.5575H55.9689C55.9689 81.5575 55.9806 81.5546 55.9864 81.546C55.9923 81.5373 55.9952 81.5286 55.9952 81.5171V79.021H56.4975V81.6037C56.4975 81.7105 56.4639 81.797 56.3982 81.8634C56.3325 81.9298 56.2434 81.9615 56.131 81.9615H55.5045C55.3935 81.9615 55.3045 81.9283 55.2402 81.8634C55.1759 81.7985 55.1438 81.7119 55.1438 81.6037V79.021H55.6418H55.6432Z" fill="#A56E18"/>
<path d="M57.8308 81.1478V81.963H57.3284V79.0224H58.3287C58.4397 79.0224 58.5288 79.0556 58.596 79.1205C58.6617 79.1855 58.6953 79.2735 58.6953 79.3846V80.787C58.6953 80.8981 58.6617 80.9847 58.596 81.0511C58.5303 81.116 58.4412 81.1492 58.3287 81.1492H57.8308V81.1478ZM58.1608 80.7423C58.1696 80.7423 58.1769 80.738 58.1827 80.7293C58.1885 80.7207 58.1915 80.712 58.1915 80.7034V79.4885C58.1915 79.4596 58.1812 79.4452 58.1608 79.4452H57.8308V80.7438H58.1608V80.7423Z" fill="#A56E18"/>
<path d="M60.8813 80.751C60.8463 80.751 60.8288 80.7683 60.8288 80.8029V81.5561H61.5779V81.9615H60.3308V80.6197C60.3308 80.5158 60.3615 80.4321 60.4228 80.3715C60.4841 80.3109 60.5688 80.2806 60.674 80.2806H61.0215C61.0566 80.2806 61.0741 80.2633 61.0741 80.2287V79.4798C61.0741 79.4452 61.0566 79.4279 61.0215 79.4279H60.3731V79.0224H61.2289C61.334 79.0224 61.4187 79.0527 61.4801 79.1133C61.5414 79.1739 61.5721 79.2576 61.5721 79.3615V80.4119C61.5721 80.5158 61.5414 80.5995 61.4801 80.6601C61.4187 80.7207 61.334 80.751 61.2289 80.751H60.8799H60.8813Z" fill="#A56E18"/>
<path d="M42.0172 90.382C40.4079 90.3705 39.2149 90.8235 38.4526 91.7455C37.1734 93.2937 37.648 95.5518 37.6684 95.647C37.7122 95.849 37.8947 95.9904 38.0992 95.9904C38.1182 95.9904 38.1357 95.9904 38.1547 95.9875C42.8817 95.3959 42.4553 90.8192 42.4509 90.773C42.4275 90.5523 42.2406 90.3849 42.0172 90.382ZM38.473 95.054C38.4132 94.4162 38.4102 93.171 39.1375 92.2938C39.6573 91.6661 40.4795 91.3199 41.5849 91.2621C41.5645 92.2029 41.2271 94.497 38.473 95.054ZM1.55374 42.5484C1.57273 42.5484 1.59171 42.5484 1.61069 42.5441C7.98344 41.7317 8.0769 33.91 8.0769 33.8307C8.0769 33.7023 8.01995 33.5811 7.92065 33.4974C7.82134 33.4151 7.68992 33.3776 7.56287 33.3993C5.24684 33.7816 3.50762 34.7642 2.39195 36.3225C0.556357 38.8864 1.09521 42.0535 1.11857 42.1862C1.15654 42.3969 1.342 42.547 1.55228 42.547L1.55374 42.5484ZM3.11626 36.8203C4.00412 35.5837 5.36658 34.7584 7.16859 34.3631C7.04447 35.9892 6.30555 40.7564 1.93926 41.6091C1.86917 40.7117 1.86186 38.5676 3.11626 36.8203ZM25.2894 91.001C24.2234 91.001 23.3575 91.858 23.3575 92.9099C23.3575 93.9617 24.2249 94.8188 25.2894 94.8188C26.354 94.8188 27.2214 93.9617 27.2214 92.9099C27.2214 91.858 26.354 91.001 25.2894 91.001ZM25.2894 93.9473C24.7097 93.9473 24.2395 93.4813 24.2395 92.9099C24.2395 92.3385 24.7112 91.8725 25.2894 91.8725C25.8677 91.8725 26.3394 92.3385 26.3394 92.9099C26.3394 93.4813 25.8677 93.9473 25.2894 93.9473ZM41.7164 9.66425C41.8478 9.66425 41.9821 9.65992 42.1194 9.65271C42.3282 9.64116 42.5005 9.48678 42.5312 9.28189C42.5385 9.23716 43.1431 4.81625 38.1138 4.02268C37.8758 3.98372 37.6509 4.14388 37.61 4.37906C37.5925 4.48151 37.185 6.91128 38.5796 8.45802C39.3025 9.26025 40.3568 9.66425 41.7164 9.66425ZM38.4336 4.97063C41.4331 5.64878 41.6988 7.90252 41.6842 8.79276C40.6036 8.78699 39.7815 8.48111 39.2397 7.88088C38.4394 6.99641 38.3956 5.66032 38.4336 4.97063ZM6.75825 31.3114C7.82427 31.3114 8.69022 30.4544 8.69022 29.4025C8.69022 28.3507 7.8228 27.4936 6.75825 27.4936C5.69369 27.4936 4.82627 28.3507 4.82627 29.4025C4.82627 30.4544 5.69369 31.3114 6.75825 31.3114ZM6.75825 28.3651C7.33799 28.3651 7.8082 28.8312 7.8082 29.4025C7.8082 29.9739 7.33653 30.44 6.75825 30.44C6.17997 30.44 5.70829 29.9739 5.70829 29.4025C5.70829 28.8312 6.17997 28.3651 6.75825 28.3651ZM17.6521 12.9525C18.7181 12.9525 19.5841 12.0955 19.5841 11.0436C19.5841 9.99178 18.7166 9.13472 17.6521 9.13472C16.5875 9.13472 15.7201 9.99178 15.7201 11.0436C15.7201 12.0955 16.5875 12.9525 17.6521 12.9525ZM17.6521 10.0062C18.2318 10.0062 18.702 10.4722 18.702 11.0436C18.702 11.615 18.2304 12.081 17.6521 12.081C17.0738 12.081 16.6021 11.615 16.6021 11.0436C16.6021 10.4722 17.0738 10.0062 17.6521 10.0062ZM19.2745 71.2541C19.2745 71.495 19.0773 71.6898 18.8335 71.6898H16.2195C15.9757 71.6898 15.7785 71.495 15.7785 71.2541C15.7785 71.0131 15.9757 70.8183 16.2195 70.8183H18.8335C19.0773 70.8183 19.2745 71.0131 19.2745 71.2541ZM72.7419 55.9439L69.9834 54.4274L69.9323 51.3138C69.9308 51.1868 69.8592 51.0685 69.7468 51.0064L66.8087 49.3919C66.6948 49.3298 66.5575 49.3313 66.4465 49.3976L63.5624 51.1045C63.4514 51.1709 63.3843 51.2892 63.3857 51.4176L63.4368 54.5313L60.7324 56.1315C60.6214 56.1978 60.5542 56.3161 60.5557 56.4446L60.6097 59.7646C60.6112 59.8915 60.6827 60.0099 60.7952 60.0719L63.7318 61.6865C63.7873 61.7168 63.8472 61.7312 63.9085 61.7312C63.9728 61.7312 64.037 61.7139 64.094 61.6807L66.7984 60.0806L69.557 61.5956C69.6124 61.6259 69.6723 61.6403 69.7337 61.6403C69.7979 61.6403 69.8622 61.623 69.9191 61.5898L72.8032 59.8829C72.9142 59.8165 72.9814 59.6982 72.9799 59.5698L72.9259 56.2498C72.9244 56.1228 72.8529 56.0045 72.7404 55.9424L72.7419 55.9439ZM63.9041 60.9607L61.3325 59.5467L61.2858 56.6393L63.8107 55.1445L65.0972 55.8516L66.3837 56.5585L66.4305 59.4659L63.9056 60.9593L63.9041 60.9607ZM66.7342 55.9338L65.4477 55.2268L64.1611 54.5198L64.1144 51.6124L66.6393 50.1176L69.2109 51.5316L69.2576 54.439L66.7327 55.9324L66.7342 55.9338ZM69.7293 60.8698L67.1577 59.4558L67.111 56.5485L69.6358 55.0551L72.2074 56.4691L72.2541 59.3764L69.7293 60.8698ZM45.7774 91.7542C45.6957 91.6892 45.5964 91.6604 45.5 91.6618C45.4021 91.6618 45.3043 91.6892 45.2225 91.7542C45.1408 91.8191 43.1986 93.3687 43.0175 95.8461C42.8933 97.54 43.6191 99.2282 45.1758 100.861C45.262 100.952 45.3802 100.999 45.4971 100.999H45.5H45.5029C45.6197 100.999 45.738 100.952 45.8242 100.861C47.3808 99.2282 48.1066 97.54 47.9825 95.8461C47.8014 93.3687 45.8592 91.8191 45.7774 91.7542ZM45.5 99.9135C44.339 98.5789 43.7987 97.2327 43.8966 95.9081C44.0134 94.3239 45.0093 93.1624 45.5 92.6805C45.9906 93.1609 46.988 94.3225 47.1034 95.9081C47.2012 97.2327 46.6595 98.5789 45.5 99.9135ZM45.5 10.4492C46.0009 10.4492 46.4068 10.8503 46.4068 11.3452C46.4068 11.8401 46.0009 12.2412 45.5 12.2412C44.9991 12.2412 44.5931 11.8401 44.5931 11.3452C44.5931 10.8503 44.9991 10.4492 45.5 10.4492ZM91 47.9692C91 47.9562 90.9956 47.9418 90.9927 47.9288C90.9898 47.9144 90.9883 47.9 90.9839 47.887C90.9795 47.874 90.9737 47.861 90.9678 47.8466C90.962 47.8336 90.9576 47.8206 90.9518 47.8091C90.943 47.7917 90.9313 47.7759 90.9197 47.76C90.9153 47.7528 90.9109 47.7456 90.9051 47.7384C90.8905 47.721 90.8744 47.7052 90.8569 47.6893C90.8525 47.685 90.8481 47.6792 90.8437 47.6763C90.8364 47.6705 90.8291 47.6662 90.8218 47.6619C90.8058 47.6503 90.7882 47.6374 90.7707 47.6287H90.7693C79.5264 41.8212 80.5676 33.6922 81.2569 28.3132C81.3094 27.9063 81.3591 27.5153 81.4029 27.1401C81.6993 24.5603 81.2306 22.5446 80.0083 21.148C79.1029 20.1134 77.9858 19.6546 77.1928 19.4497C77.6821 18.8812 78.0734 17.9535 77.5813 16.551C77.5243 16.3894 77.4426 16.2264 77.3374 16.0676C76.4831 14.7763 75.255 14.3593 74.0518 14.9509C73.7042 15.1226 73.4647 15.4198 73.3946 15.7661C73.3377 16.0446 73.3435 16.5856 74.0211 17.0762C74.2168 17.2176 74.4928 17.1772 74.6373 16.9824C74.7819 16.7891 74.7396 16.5164 74.5424 16.3735C74.3278 16.2177 74.2314 16.0705 74.2591 15.9378C74.2752 15.8584 74.3467 15.7791 74.446 15.73C75.5062 15.2077 76.251 16.0157 76.6 16.5438C76.6657 16.6433 76.7153 16.7415 76.7489 16.8352C77.1125 17.8727 76.9154 18.672 76.1633 19.2116C75.8976 19.4035 75.5602 19.5247 75.1864 19.5623C73.8853 19.6964 72.8397 19.4281 72.0789 18.7615C70.3864 17.2825 70.3309 14.2006 70.3002 12.5456C70.2915 12.0421 70.2856 11.7102 70.236 11.5053C70.198 11.3466 70.1542 11.2067 70.1016 11.0768C69.5803 9.76381 68.8326 8.96302 67.882 8.69465C66.9474 8.43061 66.0771 8.76535 65.6068 9.01352C65.5134 8.91541 65.4141 8.82162 65.306 8.73505C61.3399 5.52613 55.9265 8.61096 55.5293 8.84471C50.2021 11.4952 46.3455 13.2065 45.5058 13.5744C44.6662 13.2065 40.8095 11.4952 35.4823 8.84471C35.0866 8.61096 29.6718 5.52613 25.7056 8.73505C25.5976 8.82162 25.4983 8.91541 25.4048 9.01352C24.9346 8.76535 24.0643 8.43061 23.1297 8.69465C22.179 8.96302 21.4313 9.76525 20.91 11.0768C20.8574 11.2067 20.8136 11.3481 20.7757 11.5053C20.726 11.7102 20.7202 12.0421 20.7114 12.5456C20.6807 14.2006 20.6252 17.2811 18.9328 18.7615C18.1705 19.4266 17.1249 19.6964 15.8252 19.5623C15.4529 19.5233 15.1155 19.4021 14.8483 19.2116C14.0963 18.672 13.8991 17.8712 14.2627 16.8352C14.2963 16.7415 14.346 16.6433 14.4117 16.5438C14.7607 16.0157 15.5054 15.2077 16.5656 15.73C16.6649 15.7791 16.7365 15.8584 16.7525 15.9378C16.7803 16.0705 16.6839 16.2177 16.4692 16.3735C16.2736 16.5164 16.2312 16.7891 16.3743 16.9824C16.5189 17.1772 16.7949 17.2176 16.9906 17.0762C17.6681 16.5856 17.674 16.0446 17.617 15.7661C17.5469 15.4184 17.306 15.1211 16.9599 14.9509C15.7566 14.3593 14.5285 14.7763 13.6742 16.0676C13.5691 16.2264 13.4873 16.3894 13.4304 16.551C12.9382 17.9535 13.3296 18.8812 13.8188 19.4497C13.0259 19.6546 11.9087 20.1134 11.0033 21.148C9.78107 22.5446 9.31231 24.5618 9.60875 27.1401C9.6511 27.5138 9.70221 27.9063 9.75478 28.3132C10.444 33.6936 11.4852 41.8226 0.242393 47.6287H0.240932C0.223409 47.6374 0.205885 47.6503 0.189822 47.6619C0.18252 47.6677 0.173759 47.6705 0.167917 47.6763C0.163536 47.6806 0.159156 47.685 0.154775 47.6893C0.137251 47.7052 0.121188 47.7196 0.106585 47.7384C0.100744 47.7456 0.097823 47.7528 0.0919818 47.76C0.0802994 47.7759 0.068617 47.7917 0.0598552 47.8091C0.0525537 47.822 0.0481728 47.835 0.0437919 47.8466C0.0379507 47.8596 0.0321095 47.8726 0.0277286 47.887C0.0233477 47.9014 0.0218874 47.9158 0.0189668 47.9288C0.0160462 47.9418 0.0131256 47.9548 0.0116653 47.9692C0.0116653 47.9822 0.0116653 47.9966 0.0116653 48.0096C0.0116653 48.024 0.0116653 48.0385 0.0116653 48.0529C0.0116653 48.0673 0.0160462 48.0803 0.0189668 48.0947C0.0218874 48.1077 0.0233477 48.1222 0.0277286 48.1351C0.0335698 48.1539 0.0423316 48.1712 0.0496331 48.19C0.0525537 48.1972 0.0554743 48.2058 0.0583949 48.2131C0.0744582 48.2448 0.0963627 48.2737 0.121188 48.3011C0.128489 48.3097 0.137251 48.317 0.144553 48.3242C0.153314 48.3328 0.160616 48.3415 0.170838 48.3487C2.05462 49.8521 2.27805 53.0293 2.51316 56.3926C2.77747 60.1787 3.07391 64.3889 6.04708 66.5013H1.10543C0.890765 66.5013 0.696546 66.6239 0.606007 66.8158C0.515469 67.0077 0.544675 67.2343 0.681943 67.3959L4.86862 72.8181L0.681943 78.0023C0.544675 78.1639 0.515469 78.3904 0.606007 78.5823C0.696546 78.7742 0.890765 78.8969 1.10543 78.8969H14.5387C14.7242 78.8969 14.8965 78.8045 14.9987 78.653C15.1009 78.5001 15.1185 78.3082 15.0454 78.1394L14.6555 76.5219H45.4956H45.5H45.5044H76.3444L75.9545 78.1394C75.8815 78.3082 75.899 78.5001 76.0013 78.653C76.1035 78.806 76.2758 78.8969 76.4612 78.8969H89.8945C90.1092 78.8969 90.3034 78.7742 90.394 78.5823C90.4845 78.3904 90.4553 78.1639 90.318 78.0023L86.1313 72.8181L90.318 67.3959C90.4553 67.2343 90.4845 67.0077 90.394 66.8158C90.3034 66.6239 90.1092 66.5013 89.8945 66.5013H84.9616C87.9348 64.3889 88.2313 60.1787 88.4956 56.3926C88.7307 53.0293 88.9541 49.8521 90.8379 48.3487C90.8481 48.3415 90.8554 48.3314 90.8642 48.3242C90.8729 48.317 90.8802 48.3097 90.8875 48.3011C90.9124 48.2737 90.9343 48.2448 90.9503 48.2131C90.9547 48.2058 90.9562 48.1972 90.9591 48.19C90.9678 48.1727 90.9752 48.1539 90.981 48.1351C90.9854 48.1222 90.9868 48.1077 90.9898 48.0947C90.9927 48.0803 90.9956 48.0673 90.9971 48.0529C90.9971 48.0385 90.9971 48.024 90.9971 48.0096C90.9971 47.9966 90.9971 47.9822 90.9971 47.9692H91ZM2.28535 77.8104L6.01057 73.1716C6.18143 72.9696 6.18143 72.6753 6.01057 72.4733L2.28535 67.595H10.5682L10.9172 76.0025C10.9289 76.294 11.1727 76.5248 11.4677 76.5248H13.4581L13.7049 77.8118H2.28535V77.8104ZM77.1797 75.434H45.5044H45.5H45.4956H11.9963L11.6488 67.0741H45.4956H45.5H45.5044H79.3512L79.0036 75.434H77.1783H77.1797ZM15.7844 29.5901C15.0732 28.8615 14.6103 26.9511 14.4117 25.8329C14.4686 24.6959 14.7621 24.0712 15.0542 23.7307C15.3594 24.6671 16.0428 26.3769 17.1322 27.0882C17.16 27.1069 17.1906 27.1214 17.2213 27.1329L28.1356 31.1484C29.1213 32.6749 29.7448 33.6056 30.1449 34.1769C23.9635 33.7643 16.4225 29.9205 15.7844 29.5901ZM30.6473 34.8565C30.7962 35.0383 30.8576 35.086 30.9014 35.109C30.916 35.1191 30.9364 35.135 30.9612 35.1538C32.6654 36.4278 35.0267 36.878 37.2741 36.953C35.459 37.4277 33.5124 37.7711 31.6184 38.0193C28.34 37.7062 24.4249 36.4307 23.8715 36.246C22.7237 35.1653 22.3951 33.7946 22.3002 33.0818C24.9083 33.9836 27.9078 34.7642 30.6487 34.858L30.6473 34.8565ZM15.3536 30.0893C15.3755 30.111 15.4003 30.1297 15.428 30.1442C15.6223 30.2466 18.2085 31.6015 21.6066 32.8351C21.6387 33.3286 21.7949 34.4901 22.5266 35.6429C20.4967 35.6342 18.7517 35.1985 18.464 35.122C16.9219 34.1856 15.8749 32.6317 15.4237 31.8612C15.1331 30.88 14.9169 30.0129 14.7578 29.2438C14.933 29.58 15.1301 29.8743 15.355 30.0908L15.3536 30.0893ZM16.497 34.3703C16.9687 34.8536 17.5236 35.324 18.1603 35.7035C18.1851 35.7179 18.2128 35.7295 18.2406 35.7381C18.3282 35.7626 20.2558 36.2965 22.5791 36.2965C22.7193 36.2965 22.8624 36.2922 23.0041 36.2878C23.1457 36.4523 23.3005 36.6139 23.4699 36.7698C23.5035 36.8001 23.5429 36.8246 23.5867 36.839C23.7313 36.8881 26.2766 37.7538 29.0818 38.2992C24.9127 38.6873 21.4781 38.6556 21.0633 38.6498C18.8773 38.1794 17.3775 36.132 16.4795 34.4107C16.4853 34.3977 16.4926 34.3833 16.497 34.3689V34.3703ZM22.9836 39.5155C24.5593 39.4895 26.925 39.4015 29.5594 39.1418C29.774 39.3929 30.1887 39.8416 30.7539 40.2976C29.0497 41.6293 25.5392 42.016 25.1989 42.0506C24.2366 41.9727 23.4305 41.3321 23.0216 40.9411C22.8274 40.5803 22.731 40.348 22.7281 40.3394C22.5397 39.9238 22.8186 39.6396 22.9851 39.5155H22.9836ZM31.2957 40.7015C31.9586 41.1532 32.7618 41.5514 33.6555 41.6942C33.6789 41.6986 33.7022 41.7 33.7256 41.7C33.7738 41.7 33.822 41.6928 33.8687 41.6769C33.8906 41.6697 33.9724 41.6409 34.1023 41.5961C34.1812 41.6235 34.2878 41.6582 34.4149 41.7C33.5401 42.2079 32.1616 42.7273 31.1175 43.0779C30.9569 43.0116 30.7656 43.0419 30.6356 43.1703C30.6093 43.1963 30.5874 43.2265 30.5699 43.2568C30.4107 43.3073 30.2661 43.3521 30.1435 43.3881C29.4425 43.3622 28.486 42.7331 27.861 42.2425C29.0599 41.9395 30.4049 41.4562 31.2942 40.7044L31.2957 40.7015ZM25.1785 42.7057C25.1858 42.7057 25.1945 42.7057 25.2018 42.7057C25.212 42.7057 25.2223 42.7057 25.2325 42.7057C25.307 42.6985 26.0649 42.6263 27.0549 42.4243C27.5018 42.8153 29.0015 44.0403 30.1887 44.0403C30.2209 44.0403 30.2515 44.036 30.2822 44.0273C30.3143 44.0187 30.4837 43.9682 30.7437 43.8859C30.8196 43.9537 30.9291 44.0475 31.0708 44.1529L29.4206 44.6752C28.6248 44.8065 26.9191 44.5857 26.1963 44.4789C25.2427 43.8715 24.4994 43.0952 23.9503 42.3781C24.3183 42.547 24.7316 42.6739 25.1785 42.7057ZM28.7942 45.3677C29.0833 45.3677 29.3476 45.3519 29.5594 45.3144C29.574 45.3115 29.5886 45.3086 29.6017 45.3043L31.7995 44.6088C32.1762 44.7978 32.6143 44.9464 33.0685 44.9464C33.1327 44.9464 33.1984 44.9436 33.2641 44.9378C33.2875 44.9363 33.3109 44.932 33.3328 44.9262C33.3328 44.9262 33.9972 44.7531 34.7493 44.5569C31.7206 46.5307 28.9183 45.7184 27.9574 45.336C28.2436 45.3562 28.5284 45.3692 28.7927 45.3692L28.7942 45.3677ZM33.1459 44.0721C32.661 44.1038 32.128 43.8282 31.7367 43.5555C32.883 43.1558 34.4163 42.5542 35.2341 41.9453C35.8927 42.1314 36.69 42.3233 37.334 42.3738C37.3413 42.3738 37.3486 42.3738 37.3574 42.3738C36.9879 42.7259 36.6579 43.0173 36.4315 43.2121C35.7116 43.4026 33.4613 43.9869 33.1459 44.0692V44.0721ZM35.4312 41.094C36.7265 40.5818 38.5811 39.7709 40.0472 38.8316C40.0472 38.8633 40.0472 38.8951 40.0472 38.9268C39.9187 39.2717 39.7143 39.6367 39.4617 40.0032L37.5983 41.4446C37.5414 41.4893 37.4727 41.5095 37.407 41.5052C36.817 41.4576 36.0577 41.2729 35.4312 41.094ZM33.6891 40.8141C32.3821 40.5674 31.2781 39.6526 30.6502 39.0264C33.8585 38.6599 37.3369 38.0279 40.2049 36.9443C40.1641 37.1954 40.1319 37.4609 40.1056 37.7365C37.9897 39.2688 34.355 40.5818 33.6891 40.8155V40.8141ZM31.4928 34.4583C31.4461 34.4237 31.4125 34.3977 31.3789 34.3761C31.1817 34.1582 30.3757 32.9693 29.5141 31.6548L40.4795 35.6905C40.4576 35.767 40.4357 35.8434 40.4152 35.9243C40.367 35.9445 40.3188 35.9647 40.2692 35.9834C36.3512 36.3484 33.3167 35.8218 31.4928 34.4583ZM17.5805 26.3336C16.7262 25.742 16.0998 24.1476 15.8267 23.2516C16.5247 23.0655 17.2432 23.3324 17.252 23.3353C22.0008 24.9225 38.197 33.3488 40.8037 34.7108C40.7847 34.757 40.7672 34.8089 40.7482 34.8594L17.5791 26.3336H17.5805ZM33.4613 23.5994C33.4394 23.4204 33.2744 23.2906 33.0933 23.3137C32.9122 23.3353 32.7822 23.4984 32.8041 23.6773C32.8421 23.9875 32.8421 24.3525 32.8333 24.6454C32.5895 24.4723 32.3631 24.3193 32.1616 24.1953C31.9542 24.0683 31.6826 24.1303 31.5541 24.3338C31.4256 24.5372 31.4884 24.807 31.6943 24.934C33.7446 26.1994 38.5913 30.5886 39.0601 31.0156C39.4631 31.6043 39.9596 32.6807 40.2984 33.4627C37.004 31.7472 28.1502 27.1748 22.1337 24.4261C22.1571 24.3958 22.179 24.3655 22.198 24.3309L26.3876 16.9391H45.4941H45.4985H45.5029H64.6095L68.7991 24.3309C68.818 24.3641 68.8399 24.3958 68.8633 24.4261C62.8469 27.1748 53.9931 31.7472 50.6987 33.4627C51.0374 32.6821 51.5339 31.6043 51.937 31.0156C52.4057 30.59 57.2539 26.2008 59.3027 24.934C59.5086 24.807 59.5714 24.5372 59.4429 24.3338C59.3144 24.1289 59.0428 24.0669 58.8354 24.1953C58.6339 24.3193 58.4076 24.4723 58.1637 24.6454C58.1549 24.3525 58.1549 23.9875 58.1929 23.6773C58.2148 23.4984 58.0848 23.3353 57.9038 23.3137C57.7227 23.2906 57.5577 23.4204 57.5358 23.5994C57.4686 24.1549 57.5036 24.833 57.5241 25.1158C55.0562 26.9872 51.4814 30.2437 51.3018 30.4082C51.2784 30.4299 51.2565 30.4529 51.239 30.4789C50.8593 31.0185 50.4168 31.9304 50.0707 32.7009C50.0707 32.6937 50.0707 32.6879 50.0707 32.6807C50.0707 32.6648 50.0707 32.6475 50.0707 32.6316C50.0488 30.9796 49.3435 29.8542 48.4951 29.0981C49.2048 28.3478 50.798 26.4865 51.0579 24.6209C51.1382 24.3482 51.3339 23.2733 50.3832 21.1552C50.2839 20.9344 50.024 20.8363 49.802 20.933C49.5801 21.0311 49.4793 21.2879 49.5771 21.5072C50.4738 23.5041 50.2138 24.3698 50.2138 24.3698C50.2007 24.4016 50.1934 24.4362 50.189 24.4694C49.9743 26.1374 48.4031 27.9222 47.7912 28.5628C47.505 28.3781 47.2202 28.2281 46.9544 28.1054C46.9092 28.0549 46.8522 28.0116 46.7836 27.9857C46.7252 27.964 46.6653 27.9554 46.6069 27.9568C46.0228 27.7274 45.5964 27.6466 45.5818 27.6437C45.5686 27.6408 45.5555 27.6423 45.5409 27.6408C45.5277 27.6408 45.5146 27.6379 45.5 27.6379C45.4868 27.6379 45.4722 27.6394 45.4591 27.6408C45.446 27.6408 45.4328 27.6408 45.4182 27.6437C45.4036 27.6466 44.9772 27.7259 44.3931 27.9568C44.3347 27.9539 44.2748 27.9626 44.2164 27.9857C44.1477 28.0116 44.0908 28.0549 44.0455 28.1054C43.7798 28.2266 43.495 28.3781 43.2088 28.5628C42.5969 27.9222 41.0271 26.1374 40.811 24.4694C40.8066 24.4348 40.7978 24.4016 40.7861 24.3698C40.7861 24.3698 40.5262 23.5041 41.4228 21.5072C41.5221 21.2879 41.4214 21.0296 41.1979 20.933C40.976 20.8349 40.7146 20.9344 40.6167 21.1552C39.6661 23.2733 39.8618 24.3482 39.9421 24.6209C40.202 26.4865 41.7937 28.3493 42.5049 29.0981C41.6565 29.8542 40.9512 30.981 40.9292 32.6316C40.9278 32.6475 40.9292 32.6634 40.9292 32.6807C40.9292 32.6879 40.9292 32.6937 40.9292 32.7009C40.5832 31.9304 40.1407 31.0185 39.761 30.4789C39.7435 30.4529 39.7216 30.4299 39.6982 30.4082C39.5186 30.2437 35.9423 26.9872 33.4759 25.1158C33.4963 24.833 33.5314 24.1549 33.4642 23.5994H33.4613ZM59.6196 34.3746C59.586 34.3963 59.551 34.4222 59.5057 34.4569C57.6818 35.8204 54.6473 36.347 50.7293 35.982C50.6797 35.9618 50.6315 35.9416 50.5833 35.9228C50.5628 35.842 50.5409 35.767 50.519 35.6891L61.4844 31.6534C60.6228 32.9678 59.8168 34.1567 59.6196 34.3746ZM60.3512 34.8551C63.0922 34.7613 66.0902 33.9807 68.6998 33.0789C68.6048 33.7917 68.2763 35.1639 67.1285 36.2431C66.575 36.4278 62.66 37.7047 59.3816 38.0164C57.4876 37.7682 55.541 37.4248 53.7258 36.9501C55.9732 36.8751 58.3346 36.4249 60.0387 35.1509C60.0635 35.1321 60.084 35.1177 60.0986 35.1062C60.1409 35.0831 60.2037 35.0369 60.3527 34.8536L60.3512 34.8551ZM60.3483 39.0249C59.7218 39.6511 58.6164 40.5659 57.3094 40.8126C56.645 40.5789 53.0088 39.2673 50.8929 37.7336C50.8666 37.458 50.833 37.1925 50.7936 36.9415C53.6601 38.025 57.14 38.657 60.3483 39.0235V39.0249ZM59.7029 40.7001C60.5922 41.4518 61.9371 41.9352 63.136 42.2382C62.511 42.7288 61.556 43.3578 60.8536 43.3838C60.7324 43.3477 60.5863 43.303 60.4286 43.2525C60.4096 43.2222 60.3892 43.1919 60.3629 43.166C60.2329 43.0375 60.0402 43.0072 59.881 43.0736C58.8384 42.723 57.4584 42.2036 56.5837 41.6957C56.7122 41.6538 56.8188 41.6192 56.8962 41.5918C57.0261 41.638 57.1079 41.6654 57.1298 41.6726C57.1765 41.6885 57.2247 41.6957 57.2729 41.6957C57.2963 41.6957 57.3196 41.6942 57.343 41.6899C58.2367 41.5471 59.0399 41.1488 59.7029 40.6972V40.7001ZM55.5687 41.094C54.9423 41.2729 54.1844 41.459 53.593 41.5052C53.5273 41.5095 53.4586 41.4893 53.4017 41.4446L51.5383 40.0032C51.2857 39.6353 51.0812 39.2702 50.9527 38.9268C50.9527 38.8951 50.9527 38.8633 50.9527 38.8316C52.4189 39.7709 54.2749 40.5803 55.5687 41.094ZM53.6645 42.3738C54.31 42.3219 55.1058 42.1314 55.7644 41.9453C56.5822 42.5542 58.1155 43.1573 59.2618 43.5555C58.8705 43.8282 58.3375 44.1038 57.8527 44.0721C57.5358 43.9898 55.2855 43.4055 54.567 43.215C54.3406 43.0188 54.0106 42.7288 53.6412 42.3767C53.6485 42.3767 53.6558 42.3767 53.6645 42.3767V42.3738ZM57.6657 44.9234C57.6891 44.9291 57.711 44.9334 57.7344 44.9349C57.8001 44.9407 57.8643 44.9435 57.9301 44.9435C58.3842 44.9435 58.8223 44.7964 59.1991 44.6059L61.3968 45.3014C61.4099 45.3057 61.4245 45.3086 61.4392 45.3115C61.6509 45.349 61.9152 45.3649 62.2043 45.3649C62.4687 45.3649 62.7534 45.3519 63.0396 45.3317C62.0788 45.7155 59.2764 46.5264 56.2478 44.5525C57.0013 44.7488 57.6643 44.9219 57.6643 44.9219L57.6657 44.9234ZM61.5764 44.6737L59.9263 44.1514C60.0665 44.0447 60.1774 43.9509 60.2534 43.8845C60.5133 43.9667 60.6827 44.0172 60.7148 44.0259C60.7455 44.0345 60.7776 44.0389 60.8083 44.0389C61.997 44.0389 63.4953 42.8124 63.9421 42.4229C64.9336 42.6249 65.6901 42.697 65.7646 42.7042C65.7748 42.7042 65.785 42.7042 65.7952 42.7042C65.8025 42.7042 65.8113 42.7042 65.8186 42.7042C66.2654 42.6739 66.6787 42.547 67.0467 42.3767C66.4976 43.0938 65.7543 43.8701 64.8008 44.4775C64.0764 44.5828 62.3708 44.805 61.5764 44.6737ZM65.7996 42.0506C65.4594 42.016 61.9488 41.6293 60.2446 40.2976C60.8098 39.8416 61.2245 39.3929 61.4392 39.1418C64.0735 39.4015 66.4378 39.4881 68.0149 39.5155C68.1799 39.6396 68.4588 39.9253 68.2719 40.3394C68.2675 40.348 68.1726 40.5803 67.9784 40.9411C67.5695 41.3321 66.7634 41.9727 65.8011 42.0506H65.7996ZM61.9152 38.2992C64.7204 37.7523 67.2657 36.8881 67.4103 36.839C67.4541 36.8246 67.4936 36.8001 67.5271 36.7698C67.698 36.6139 67.8528 36.4523 67.993 36.2878C68.1361 36.2922 68.2777 36.2965 68.4179 36.2965C70.7412 36.2965 72.6689 35.7626 72.7565 35.7381C72.7842 35.7309 72.812 35.7179 72.8368 35.7035C73.4735 35.324 74.0284 34.8536 74.5001 34.3703C74.5059 34.3847 74.5117 34.3977 74.5176 34.4121C73.618 36.132 72.1198 38.1809 69.9337 38.6512C69.519 38.657 66.0844 38.6888 61.9152 38.3006V38.2992ZM72.5345 35.1206C72.2454 35.1971 70.5018 35.6328 68.472 35.6415C69.2021 34.4901 69.3584 33.3271 69.3919 32.8336C72.7901 31.6 75.3762 30.2452 75.5705 30.1427C75.5982 30.1283 75.623 30.1095 75.6449 30.0879C75.8684 29.8715 76.067 29.5771 76.2422 29.2409C76.0845 30.01 75.8669 30.8771 75.5763 31.8583C75.1236 32.6288 74.078 34.1827 72.536 35.1191L72.5345 35.1206ZM75.2141 29.5887C74.576 29.9191 67.035 33.7643 60.8536 34.1755C61.2537 33.6041 61.8772 32.6735 62.8629 31.147L73.7772 27.1315C73.8079 27.1199 73.8385 27.1055 73.8663 27.0868C74.9557 26.3769 75.6391 24.6656 75.9443 23.7292C76.2378 24.0697 76.5299 24.6931 76.5868 25.8315C76.3882 26.9497 75.9253 28.86 75.2141 29.5887ZM73.418 26.3336L50.2489 34.8594C50.2299 34.8104 50.2124 34.7584 50.1934 34.7108C52.8 33.3488 68.9962 24.9225 73.7451 23.3353C73.7539 23.3324 74.4738 23.0655 75.1703 23.2516C74.8973 24.1476 74.2708 25.7406 73.4165 26.3336H73.418ZM44.5946 31.4139C45.1977 30.4212 45.0619 29.2943 44.9173 28.6854C45.1831 28.5945 45.3919 28.544 45.4985 28.5209C45.6066 28.544 45.8139 28.5945 46.0797 28.6854C45.9352 29.2943 45.7993 30.4212 46.4025 31.4139C46.9209 32.2666 47.8569 32.812 49.1785 33.0457C49.1726 33.1367 49.1683 33.2276 49.158 33.3228C48.59 33.4497 47.2115 33.7109 45.5029 33.7109H45.4985H45.4941C43.7856 33.7109 42.4056 33.4497 41.839 33.3228C41.8288 33.2276 41.8229 33.1367 41.8186 33.0457C43.1401 32.812 44.0762 32.2666 44.5946 31.4139ZM41.8434 32.1555C41.9982 30.893 42.6524 30.0504 43.3738 29.4978C43.403 29.4804 43.4307 29.4603 43.457 29.4343C43.6688 29.2799 43.8834 29.15 44.0923 29.0404C44.1872 29.5338 44.2383 30.313 43.8367 30.9695C43.476 31.5582 42.8057 31.955 41.8434 32.1555ZM46.9062 29.0404C47.1151 29.15 47.3297 29.2799 47.5415 29.4343C47.5663 29.4588 47.5955 29.4804 47.6247 29.4978C48.3461 30.0504 49.0003 30.8916 49.1551 32.1555C48.1942 31.955 47.5225 31.5596 47.1618 30.9695C46.7602 30.313 46.8113 29.5338 46.9062 29.0404ZM49.2997 34.8565C49.4778 35.2851 49.6764 35.868 49.8298 36.5923C49.691 37.0049 49.0324 38.6282 46.9515 39.6656C47.1998 38.468 47.6627 37.3007 48.2293 36.6918C48.8484 36.0267 49.1522 35.376 49.3011 34.8565H49.2997ZM42.7707 36.6918C43.3358 37.3007 43.7987 38.468 44.0485 39.6656C41.9675 38.6267 41.3089 37.0049 41.1702 36.5923C41.3221 35.868 41.5221 35.2865 41.7003 34.8565C41.8492 35.3774 42.153 36.0267 42.7721 36.6918H42.7707ZM43.4205 36.1017C42.7794 35.412 42.5575 34.757 42.483 34.3342C43.2248 34.4569 44.2733 34.5824 45.4971 34.5824H45.5014H45.5058C46.7281 34.5824 47.7781 34.4583 48.5199 34.3342C48.4454 34.757 48.2234 35.412 47.5824 36.1017C46.3338 37.445 45.5788 40.6684 45.9804 42.5859H45.5073H45.5029H45.4985H45.0254C45.427 40.6669 44.672 37.445 43.4234 36.1017H43.4205ZM44.5099 43.4574H45.4956H45.5H45.5044H46.4901C46.5572 43.4574 46.623 43.443 46.6843 43.4127C47.6349 42.9524 48.6966 41.9612 49.5114 41.094C49.6414 41.4172 49.7933 41.8544 49.8999 42.3493C49.8999 42.3536 49.8999 42.3565 49.9028 42.3608C50.0912 43.241 50.135 44.3 49.6589 45.2263C49.0397 46.434 47.6408 47.1987 45.5 47.5003C43.3606 47.1987 41.9602 46.4355 41.3411 45.2263C40.8665 44.3 40.9103 43.2395 41.0972 42.3608C41.0972 42.3565 41.0986 42.3536 41.1001 42.3493C41.2067 41.8544 41.3586 41.4172 41.4885 41.094C42.3048 41.9612 43.365 42.9538 44.3157 43.4127C44.3756 43.4415 44.4427 43.4574 44.5099 43.4574ZM46.8216 42.3204C46.7369 41.8573 46.7325 41.2917 46.7923 40.6929C48.4848 40.0018 49.4778 38.9528 50.0401 38.1059C50.0634 38.4247 50.0766 38.758 50.0736 39.1101C49.6954 39.5804 48.1767 41.4114 46.8216 42.3204ZM40.9585 38.1059C41.5207 38.9543 42.5122 40.0018 44.2062 40.6929C44.266 41.2917 44.2617 41.8573 44.177 42.3204C42.8218 41.4114 41.3031 39.5804 40.9249 39.1101C40.9219 38.758 40.9351 38.4247 40.9585 38.1059ZM45.4343 48.3718C45.4547 48.3747 45.4752 48.3761 45.4956 48.3761H45.4985H45.5014C45.5219 48.3761 45.5423 48.3761 45.5628 48.3718C47.889 48.0558 49.4793 47.2189 50.2956 45.8828C50.4227 46.17 50.5701 46.5249 50.7249 46.9405C50.2533 47.6157 48.3651 50.096 45.4985 51.0641C42.6334 50.096 40.7438 47.6172 40.2721 46.9405C40.4269 46.5249 40.5744 46.17 40.7014 45.8828C41.5177 47.2189 43.108 48.0558 45.4343 48.3718ZM45.3598 51.94C45.4051 51.9544 45.4503 51.9616 45.4956 51.9616H45.4985H45.5014C45.5467 51.9616 45.592 51.9544 45.6372 51.94C48.3388 51.0815 50.2153 49.0499 51.0696 47.9534C51.3091 48.7181 51.5369 49.6054 51.7004 50.5793C51.2711 51.2806 49.0368 54.7016 45.4971 56.0954C41.9588 54.7016 39.723 51.2806 39.2937 50.5793C39.4587 49.6054 39.6865 48.7181 39.9246 47.9534C40.7803 49.0499 42.6553 51.0815 45.3569 51.94H45.3598ZM45.3394 56.9698C45.3905 56.9885 45.443 56.9986 45.4956 56.9986H45.5H45.5044C45.5555 56.9986 45.608 56.99 45.6606 56.9698C48.7375 55.8212 50.8651 53.3251 51.8786 51.9068C51.8932 52.0669 51.9078 52.2285 51.918 52.3916C52.029 54.0711 51.8976 55.664 51.5281 57.1718C51.2302 57.5224 49.231 59.7299 45.5 60.7024C41.7689 59.7299 39.7712 57.5224 39.4719 57.1718C39.1039 55.664 38.9725 54.0696 39.082 52.3916C39.0922 52.2285 39.1068 52.0669 39.1214 51.9068C40.1348 53.3251 42.2625 55.8212 45.3394 56.9698ZM45.3861 61.5768C45.4226 61.5855 45.4591 61.5898 45.4956 61.5898H45.4985H45.5014C45.538 61.5898 45.5745 61.5855 45.611 61.5768C48.1212 60.9448 49.8955 59.8035 50.9776 58.9133C50.2722 60.7356 49.1843 62.4165 47.7182 63.946H45.5014H45.4971H45.4927H43.276C41.8083 62.4165 40.7219 60.7371 40.0166 58.9133C41.0986 59.8021 42.8744 60.9434 45.3832 61.5768H45.3861ZM45.4956 64.5996H45.5H45.5044H47.0596C46.5762 65.0555 46.0549 65.4956 45.5 65.9227C44.9451 65.4956 44.4252 65.0541 43.9404 64.5996H45.4956ZM88.7146 67.5906L84.9894 72.4689C84.8185 72.6709 84.8185 72.9653 84.9894 73.1673L88.7146 77.8061H77.2951L77.5419 76.519H79.5322C79.8272 76.519 80.0711 76.2882 80.0828 75.9967L80.4318 67.5892H88.7146V67.5906ZM87.6165 56.3335C87.3156 60.6303 87.0046 65.0671 83.0852 66.5013H80.4741C80.4741 66.4753 80.4712 66.4493 80.4668 66.4234C80.8567 65.6255 81.2919 64.7699 81.7753 63.8594C82.4967 63.845 84.0679 63.6516 85.2347 62.3617C86.6118 60.8381 86.9389 58.3376 86.2073 54.9296C86.1781 54.7939 86.0861 54.6814 85.959 54.6237C85.832 54.5674 85.6845 54.5717 85.5633 54.6381C83.0749 55.9944 78.9613 59.5712 80.975 63.4929C80.5077 64.3745 80.0857 65.2041 79.7046 65.9818H76.3196L84.9222 50.373C85.0493 50.1422 85.0478 49.8651 84.9178 49.6357L76.5708 34.9099C76.2539 35.4697 75.8917 36.018 75.6376 36.3845L83.3626 50.0138L74.6183 65.878C74.5994 65.9111 74.5877 65.9472 74.5745 65.9818H46.8245C49.9875 63.3039 51.5865 60.3432 52.3123 57.5859C52.3415 57.5296 52.3561 57.4704 52.359 57.4098C52.8234 55.5601 52.8993 53.807 52.7971 52.3007C52.6262 49.7814 51.9647 47.6518 51.4244 46.2811C51.8844 46.7832 52.2743 47.2175 52.416 47.3935L54.1946 56.2642C54.1975 56.2758 54.2019 56.2873 54.2048 56.2974V57.3882C54.2048 57.6291 54.402 57.8239 54.6458 57.8239C54.8897 57.8239 55.0868 57.6291 55.0868 57.3882V57.1083L55.8593 57.7273C55.9411 57.7922 56.039 57.8239 56.1368 57.8239C56.2653 57.8239 56.3924 57.7691 56.48 57.6623C56.6333 57.4762 56.6041 57.2006 56.4157 57.0491L55.0314 55.9396L53.2644 47.128C53.2527 47.0718 53.2308 47.0184 53.1987 46.9708C52.9928 46.6649 51.4303 44.9868 50.8534 44.3707C50.9089 44.0345 50.9265 43.6998 50.9177 43.3737C52.0713 44.4212 53.3768 45.6188 53.6718 45.9204L55.9849 52.9644C56.0098 53.0409 56.0565 53.1087 56.1193 53.1606L56.2726 54.8848C56.2872 55.0551 56.4318 55.1835 56.6012 55.1835C56.6114 55.1835 56.6202 55.1835 56.6304 55.1835C56.8129 55.1676 56.9473 55.0089 56.9312 54.83L56.8217 53.5949L58.6135 54.6756C58.685 54.7189 58.7639 54.7391 58.8427 54.7391C58.9917 54.7391 59.1363 54.6655 59.2195 54.5299C59.3465 54.325 59.2808 54.0566 59.0735 53.9311L56.775 52.5445L54.4837 45.564C54.4662 45.512 54.4399 45.4644 54.4063 45.4226C54.1639 45.1297 51.5062 42.7215 50.7395 42.029C50.5687 41.3003 50.3204 40.7059 50.1656 40.3755C50.2912 40.2312 50.4022 40.0999 50.4971 39.9859C51.6201 41.9222 54.0953 43.961 54.3231 44.1471C56.4625 46.1397 58.6485 46.675 60.3804 46.675C62.2219 46.675 63.5507 46.0704 63.7727 45.9636C67.4804 44.5987 69.0312 40.8199 69.0882 40.677C69.2883 40.2355 69.2547 39.8445 69.1174 39.5242C69.1525 39.5242 69.1919 39.5242 69.2255 39.5242C69.6606 39.5242 69.9308 39.5199 69.998 39.5184C70.0257 39.5184 70.052 39.5141 70.0783 39.5097C72.3695 39.0394 73.9583 37.1694 74.9747 35.4279C75.1966 35.0282 75.5719 34.2563 75.8873 33.5912C76.2247 32.786 76.397 32.2031 76.4174 32.1267C77.8427 27.3277 77.8383 24.2386 76.4057 22.9472C76.2437 22.8015 76.0728 22.6889 75.899 22.5995C75.8946 22.598 75.8917 22.5951 75.8873 22.5937C74.8023 22.0411 73.5845 22.4638 73.437 22.5187C72.6353 22.787 71.5284 23.2386 70.2272 23.8129C70.2126 23.735 70.1878 23.6585 70.1469 23.5864L65.7354 15.805C65.5995 15.5641 65.3411 15.4155 65.0621 15.4155H45.5029H45.4985H45.4941H25.9378C25.6589 15.4155 25.4004 15.5641 25.2646 15.805L20.8531 23.5864C20.8122 23.6585 20.7873 23.7364 20.7727 23.8129C19.4716 23.2401 18.3647 22.787 17.563 22.5187C17.417 22.4638 16.1976 22.0411 15.1126 22.5937C15.1082 22.5951 15.1053 22.598 15.1009 22.5995C14.9272 22.6889 14.7563 22.8015 14.5942 22.9472C13.1617 24.2386 13.1587 27.3277 14.5825 32.1267C14.6044 32.2031 14.7797 32.8019 15.1287 33.6258C15.4266 34.2534 15.7727 34.9662 15.9946 35.3716C17.0095 37.129 18.6086 39.0336 20.9246 39.5097C20.9509 39.5155 20.9786 39.5184 21.0049 39.5184C21.0721 39.5184 21.3437 39.5242 21.7774 39.5242C21.811 39.5242 21.8504 39.5242 21.8855 39.5242C21.7482 39.8445 21.7146 40.2355 21.9147 40.677C21.9716 40.8199 23.5225 44.5973 27.2302 45.9636C27.4507 46.0704 28.781 46.675 30.6225 46.675C32.3558 46.675 34.5419 46.1397 36.6812 44.1471C36.909 43.961 39.3843 41.9222 40.5072 39.9859C40.6021 40.0999 40.7146 40.2312 40.8387 40.3755C40.6839 40.7044 40.4357 41.3003 40.2648 42.029C39.4982 42.723 36.8389 45.1297 36.598 45.4226C36.563 45.4644 36.5367 45.512 36.5206 45.564L34.2294 52.5445L31.9309 53.9311C31.7235 54.0566 31.6578 54.325 31.7849 54.5299C31.8681 54.6641 32.0127 54.7391 32.1616 54.7391C32.2405 54.7391 32.3193 54.7189 32.3909 54.6756L34.1827 53.5949L34.0731 54.83C34.0571 55.0104 34.1914 55.1691 34.374 55.1835C34.3842 55.1835 34.3929 55.1835 34.4032 55.1835C34.5726 55.1835 34.7171 55.0551 34.7317 54.8848L34.8851 53.1606C34.9464 53.1087 34.9931 53.0409 35.0194 52.9644L37.3325 45.9204C37.6275 45.6188 38.933 44.4212 40.0867 43.3737C40.0779 43.6998 40.0954 44.036 40.1509 44.3707C39.5756 44.9868 38.013 46.6649 37.8057 46.9708C37.7735 47.0184 37.7516 47.0718 37.74 47.128L35.973 55.9396L34.5886 57.0491C34.3988 57.2006 34.371 57.4748 34.5244 57.6623C34.612 57.7691 34.739 57.8239 34.8675 57.8239C34.9654 57.8239 35.0632 57.7922 35.145 57.7273L35.9175 57.1083V57.3882C35.9175 57.6291 36.1146 57.8239 36.3585 57.8239C36.6024 57.8239 36.7995 57.6291 36.7995 57.3882V56.2974C36.8024 56.2858 36.8068 56.2758 36.8097 56.2642L38.5884 47.3935C38.7315 47.216 39.1199 46.7832 39.5799 46.2811C39.0396 47.6532 38.3781 49.7814 38.2073 52.3007C38.105 53.807 38.181 55.5601 38.6453 57.4098C38.6483 57.4704 38.6629 57.5296 38.6921 57.5859C39.4178 60.3432 41.0169 63.3039 44.1799 65.9818H16.4283C16.4152 65.9472 16.4021 65.9126 16.3845 65.878L7.64027 50.0138L15.3652 36.3874C15.1126 36.0209 14.749 35.4726 14.4321 34.9128L6.08505 49.6372C5.95508 49.8651 5.95362 50.1436 6.08067 50.3745L14.6833 65.9833H11.2969C10.9157 65.2056 10.4937 64.3759 10.0264 63.4944C12.0401 59.5727 7.92503 55.9958 5.43814 54.6396C5.31547 54.5732 5.16944 54.5674 5.0424 54.6251C4.91535 54.6828 4.82335 54.7954 4.79415 54.931C4.06107 58.339 4.38818 60.8395 5.7667 62.3632C6.93348 63.6531 8.5033 63.845 9.22615 63.8609C9.70951 64.7713 10.1447 65.6269 10.5346 66.4248C10.5302 66.4508 10.5273 66.4768 10.5273 66.5027H7.91626C3.99536 65.0685 3.68432 60.6303 3.38496 56.3349C3.15569 53.0524 2.93372 49.9416 1.18721 48.1106C12.395 42.0448 11.3304 33.7311 10.6222 28.2006C10.5711 27.7981 10.5214 27.41 10.4776 27.0391C10.2104 24.7118 10.6091 22.9198 11.6634 21.715C12.798 20.4179 14.3606 20.1957 14.7534 20.1596C15.0498 20.2981 15.3784 20.3919 15.7259 20.428C15.9757 20.4539 16.2181 20.4669 16.4546 20.4669C17.6842 20.4669 18.7093 20.1134 19.511 19.4136C21.4941 17.6808 21.554 14.3506 21.5876 12.5615C21.5949 12.1979 21.6007 11.8213 21.6285 11.7102C21.6577 11.5919 21.6898 11.4895 21.7263 11.3971C22.141 10.3539 22.6916 9.72773 23.3618 9.53583C23.9533 9.36702 24.5403 9.56613 24.8952 9.73928C24.6294 10.2746 24.5301 10.8849 24.6235 11.5039C24.7769 12.5139 25.4326 13.3464 26.3774 13.7273C27.4171 14.1472 28.4685 14.0419 29.5039 13.4157C30.6458 12.7245 31.0985 11.2918 30.5363 10.1534C30.4779 10.0336 30.4093 9.92252 30.3362 9.82296C30.1931 9.62818 29.9171 9.58633 29.72 9.72918C29.5229 9.87058 29.4805 10.1433 29.6251 10.3381C29.6689 10.3972 29.7083 10.4636 29.7448 10.5372C30.1099 11.2759 29.8032 12.2152 29.0453 12.674C28.2509 13.1545 27.4887 13.2353 26.7132 12.9222C26.0488 12.6538 25.6063 12.0897 25.4983 11.3755C25.3844 10.6252 25.6691 9.89078 26.262 9.41175C29.8164 6.53613 34.9873 9.57046 35.0384 9.60221C35.0486 9.60798 35.0588 9.61375 35.0691 9.61808C41.1118 12.625 45.2824 14.4329 45.3233 14.4516C45.3423 14.4603 45.3627 14.4646 45.3832 14.4704C45.4211 14.4805 45.4606 14.4877 45.5 14.4877H45.5044H45.5087C45.5482 14.4877 45.5861 14.4805 45.6256 14.4704C45.646 14.4646 45.665 14.4603 45.6854 14.4516C45.7263 14.4343 49.8969 12.6264 55.9397 9.61808C55.9499 9.61231 55.9601 9.60798 55.9703 9.60221C56.0214 9.57046 61.1924 6.53613 64.7467 9.41175C65.3382 9.89078 65.6244 10.6252 65.5105 11.3755C65.4024 12.0897 64.9585 12.6538 64.2955 12.9222C63.5201 13.2353 62.7578 13.1545 61.9634 12.674C61.2055 12.2152 60.8974 11.2774 61.2639 10.5372C61.3004 10.4636 61.3413 10.3972 61.3837 10.3381C61.5268 10.1433 61.4844 9.87202 61.2887 9.72918C61.0916 9.58633 60.8171 9.62962 60.6725 9.82296C60.598 9.92252 60.5308 10.0351 60.4724 10.1534C59.9088 11.2918 60.3629 12.7245 61.5049 13.4157C62.5402 14.0419 63.5916 14.1472 64.6314 13.7273C65.5762 13.345 66.2318 12.5139 66.3852 11.5039C66.4786 10.8849 66.3793 10.276 66.1136 9.73928C66.4684 9.56613 67.0555 9.36702 67.6469 9.53583C68.3172 9.72773 68.8677 10.3539 69.2824 11.3971C69.3189 11.4895 69.351 11.5919 69.3802 11.7102C69.408 11.8213 69.4138 12.1979 69.4212 12.5615C69.4533 14.3506 69.5146 17.6808 71.4977 19.4136C72.2979 20.1134 73.3245 20.4669 74.5541 20.4669C74.7892 20.4669 75.0316 20.4539 75.2828 20.428C75.6318 20.3919 75.9589 20.2967 76.2553 20.1596C76.6482 20.1957 78.2107 20.4193 79.3453 21.715C80.3997 22.9198 80.7983 24.7118 80.5311 27.0391C80.4887 27.41 80.4391 27.7981 80.3865 28.2006C79.6783 33.7311 78.6123 42.0463 89.8215 48.1106C88.075 49.9416 87.8545 53.0524 87.6238 56.3349L87.6165 56.3335ZM83.2969 60.1801C83.0837 60.0618 82.815 60.1383 82.6967 60.3475C82.2762 61.092 81.8804 61.8077 81.5051 62.5002C80.4566 59.3231 84.0709 56.622 85.464 55.7217C85.9736 58.5208 85.6787 60.5553 84.582 61.7745C83.8635 62.5738 82.9231 62.8509 82.2645 62.9446C82.6427 62.2477 83.0414 61.5234 83.4663 60.7717C83.5846 60.561 83.5086 60.297 83.2969 60.1787V60.1801ZM7.53221 60.7731C7.95715 61.5249 8.35728 62.2477 8.73403 62.9461C8.07544 62.8537 7.135 62.5753 6.41654 61.7759C5.32131 60.5567 5.02487 58.5223 5.53452 55.7231C6.92618 56.6235 10.5404 59.3231 9.49193 62.5017C9.11663 61.8105 8.72089 61.0934 8.30032 60.3489C8.18204 60.1383 7.91334 60.0633 7.70014 60.1816C7.48694 60.2984 7.411 60.5639 7.53075 60.7746L7.53221 60.7731ZM18.2581 60.0705L21.1948 61.685C21.2503 61.7153 21.3101 61.7297 21.3715 61.7297C21.4357 61.7297 21.5 61.7124 21.5569 61.6793L24.2614 60.0791L27.0199 61.5941C27.0754 61.6244 27.1353 61.6389 27.1966 61.6389C27.2608 61.6389 27.3251 61.6215 27.382 61.5883L30.2661 59.8814C30.3771 59.8151 30.4443 59.6968 30.4428 59.5683L30.3888 56.2483C30.3873 56.1214 30.3158 56.0031 30.2034 55.941L27.4448 54.4246L27.3937 51.3109C27.3923 51.1839 27.3207 51.0656 27.2083 51.0035L24.2716 49.389C24.1577 49.3269 24.0204 49.3284 23.9095 49.3948L21.0254 51.1017C20.9144 51.168 20.8472 51.2863 20.8487 51.4148L20.8998 54.5285L18.1953 56.1286C18.0843 56.1949 18.0172 56.3133 18.0186 56.4417L18.0726 59.7617C18.0741 59.8887 18.1457 60.007 18.2581 60.069V60.0705ZM29.666 56.4676L29.7127 59.375L27.1878 60.8684L24.6162 59.4544L24.5695 56.547L27.0944 55.0536L29.666 56.4676ZM24.0993 50.1176L26.6709 51.5316L26.7176 54.439L24.1928 55.9324L22.9062 55.2253L21.6197 54.5183L21.573 51.611L24.0978 50.1162L24.0993 50.1176ZM21.2692 55.1445L22.5558 55.8516L23.8423 56.5585L23.889 59.4659L21.3642 60.9593L18.7926 59.5453L18.7458 56.6379L21.2707 55.1431L21.2692 55.1445ZM65.7091 90.9981C64.6431 90.9981 63.7771 91.8552 63.7771 92.907C63.7771 93.9588 64.6445 94.8159 65.7091 94.8159C66.7736 94.8159 67.641 93.9588 67.641 92.907C67.641 91.8552 66.7736 90.9981 65.7091 90.9981ZM65.7091 93.9444C65.1293 93.9444 64.6591 93.4784 64.6591 92.907C64.6591 92.3356 65.1308 91.8696 65.7091 91.8696C66.2873 91.8696 66.759 92.3356 66.759 92.907C66.759 93.4784 66.2873 93.9444 65.7091 93.9444ZM68.012 77.8594H69.7687L65.5484 85.5152C65.4126 85.7605 65.1527 85.9135 64.8709 85.9135H45.5014H45.4971H45.4927H26.1277C25.8458 85.9135 25.5844 85.7605 25.4501 85.5152L21.2298 77.8594H22.9866L26.5847 84.3884H45.4956H45.5H45.5044H64.4152L68.0134 77.8594H68.012ZM48.9813 90.3791C48.7579 90.382 48.571 90.5494 48.5476 90.7701C48.5433 90.8163 48.1168 95.3931 52.8438 95.9846C52.8628 95.9875 52.8818 95.9875 52.8993 95.9875C53.1038 95.9875 53.2848 95.8461 53.3301 95.6441C53.3506 95.5489 53.8251 93.2908 52.5459 91.7426C51.7836 90.8192 50.5891 90.3676 48.9813 90.3791ZM52.5255 95.0511C49.7714 94.4956 49.434 92.2 49.4136 91.2593C50.519 91.317 51.3412 91.6633 51.861 92.2909C52.5883 93.1682 52.5868 94.4134 52.5255 95.0511ZM78.4502 79.94C76.8497 79.4076 75.3281 79.4985 73.9291 80.2099C70.5762 81.9139 69.1072 86.57 69.0488 86.759C68.802 87.5035 68.3639 88.4226 67.6702 88.577C67.0087 88.7227 66.2625 88.1283 66.0289 87.8859C66.0172 87.8729 66.0026 87.8628 65.9909 87.8527C65.9821 87.8455 65.9748 87.8368 65.9646 87.831C65.9471 87.8195 65.9296 87.8094 65.912 87.8007C65.9047 87.7964 65.8974 87.7921 65.8901 87.7892C65.8697 87.7805 65.8478 87.7733 65.8259 87.7675C65.82 87.7661 65.8157 87.7632 65.8098 87.7618C65.7865 87.756 65.7646 87.7546 65.7412 87.7517C65.7368 87.7517 65.731 87.7502 65.7266 87.7502C65.7032 87.7502 65.6813 87.7502 65.658 87.7531C65.6521 87.7531 65.6477 87.7531 65.6419 87.7531C65.62 87.756 65.5995 87.7618 65.5791 87.769C65.5718 87.7704 65.566 87.7719 65.5587 87.7748C65.5397 87.782 65.5221 87.7906 65.5046 87.7993C65.4959 87.8036 65.4886 87.8065 65.4798 87.8108C65.4652 87.8195 65.4506 87.831 65.4374 87.8426C65.4287 87.8498 65.4185 87.8556 65.4097 87.8628C60.3644 92.4294 53.4718 88.8353 53.4075 88.8006C52.9358 88.5395 52.4788 88.3187 52.0377 88.1355C52.029 88.1312 52.0202 88.1283 52.0115 88.1239C52.0071 88.1225 52.0027 88.121 51.9983 88.1196C50.208 87.3823 48.6761 87.2842 47.432 87.8325C46.439 88.2711 45.8417 89.0301 45.4971 89.662C45.151 89.0315 44.5552 88.2711 43.5622 87.8325C42.3195 87.2842 40.7876 87.3823 38.9958 88.1196C38.9914 88.121 38.9871 88.121 38.9827 88.1239C38.9739 88.1283 38.9651 88.1312 38.9564 88.1355C38.5154 88.3187 38.0583 88.5395 37.5866 88.8006C37.5224 88.8338 30.6298 92.428 25.5844 87.8628C25.5757 87.8556 25.5654 87.8498 25.5567 87.8426C25.5421 87.831 25.5289 87.8195 25.5143 87.8108C25.507 87.8065 25.4983 87.8036 25.4895 87.7993C25.472 87.7906 25.4545 87.7805 25.4355 87.7748C25.4282 87.7719 25.4223 87.7719 25.415 87.769C25.3946 87.7632 25.3741 87.7575 25.3522 87.7531C25.3464 87.7531 25.342 87.7531 25.3362 87.7531C25.3128 87.7502 25.2909 87.7488 25.2675 87.7502C25.2632 87.7502 25.2573 87.7517 25.2529 87.7517C25.2296 87.7531 25.2062 87.756 25.1843 87.7618C25.1785 87.7618 25.1741 87.7661 25.1682 87.7675C25.1463 87.7733 25.1244 87.7805 25.104 87.7892C25.0967 87.7921 25.0894 87.7979 25.0821 87.8007C25.0646 87.8094 25.0456 87.8195 25.0295 87.831C25.0207 87.8368 25.012 87.8455 25.0032 87.8527C24.9901 87.8642 24.9769 87.8729 24.9653 87.8859C24.7331 88.1283 23.9854 88.7242 23.3239 88.577C22.6317 88.4226 22.1921 87.5035 21.9454 86.759C21.8869 86.57 20.4179 81.9139 17.065 80.2099C15.6661 79.4985 14.1444 79.4076 12.544 79.94C11.4575 80.3008 10.6485 81.3843 10.5287 82.6353C10.4134 83.8473 10.9551 84.9107 11.9774 85.4806C12.5863 85.8197 13.0872 85.9135 13.4844 85.8918C13.5632 86.7013 13.8991 88.6592 15.3039 89.6851C15.8851 90.1093 16.5715 90.3214 17.3542 90.3214C17.8156 90.3214 18.3121 90.2478 18.8393 90.0992C19.0248 90.0473 19.1547 89.8828 19.1591 89.6923C19.162 89.6101 19.2015 87.668 17.8039 86.3146C17.0607 85.596 16.0618 85.1906 14.8337 85.0997C15.0586 84.7332 15.1477 84.2859 15.0557 83.8574C14.9359 83.299 14.5329 82.8921 13.978 82.7724C13.7399 82.7204 13.5048 82.869 13.4523 83.1042C13.3997 83.3394 13.5501 83.5717 13.7881 83.6237C14.0612 83.6828 14.159 83.8819 14.1926 84.0378C14.2583 84.348 14.1298 84.6914 13.8772 84.8746C13.5428 85.117 13.0215 85.0636 12.4081 84.7217C11.383 84.1503 11.364 83.1302 11.4035 82.7175C11.4911 81.8028 12.0606 81.0193 12.8229 80.7654C14.1897 80.3109 15.4792 80.3845 16.6591 80.9832C19.6834 82.5199 21.0882 86.9754 21.1013 87.0201C21.5671 88.4269 22.2491 89.2335 23.1311 89.4268C23.2684 89.4571 23.4042 89.4701 23.5371 89.4701C24.2731 89.4701 24.9185 89.0575 25.2851 88.7646C28.8482 91.7484 33.1254 91.2059 35.7014 90.4498C35.2443 90.9577 34.8617 91.4757 34.4966 91.9691C33.1269 93.8247 32.0462 95.2892 28.048 94.8534C27.807 94.8275 27.588 94.9991 27.5617 95.2387C27.5354 95.4782 27.7092 95.6932 27.9516 95.7191C28.4598 95.774 28.927 95.7999 29.3593 95.7999C32.7589 95.7999 33.9534 94.1825 35.2093 92.4814C36.173 91.1756 37.1704 89.8265 39.2981 88.9319C40.8635 88.2812 42.1676 88.1744 43.1869 88.6203C44.6574 89.2638 45.0531 90.8913 45.0561 90.9072C45.1028 91.1092 45.2853 91.2448 45.4854 91.2448H45.4898H45.4941C45.6957 91.2448 45.8767 91.1078 45.9235 90.9072C45.9279 90.8913 46.3236 89.2638 47.7927 88.6203C48.8119 88.1744 50.1175 88.2798 51.6814 88.9319C53.8105 89.8265 54.8079 91.1756 55.7703 92.4814C57.0261 94.1825 58.2192 95.7999 61.6202 95.7999C62.0525 95.7999 62.5198 95.774 63.028 95.7191C63.2704 95.6932 63.4441 95.4782 63.4179 95.2387C63.3916 94.9991 63.1725 94.8275 62.9316 94.8534C58.9333 95.2892 57.8527 93.8247 56.4829 91.9691C56.1178 91.4742 55.7352 90.9563 55.2781 90.4498C57.8541 91.2059 62.1313 91.7469 65.6945 88.7646C66.061 89.0575 66.7064 89.4701 67.4424 89.4701C67.5753 89.4701 67.7111 89.4571 67.8484 89.4268C68.7304 89.2335 69.4124 88.4255 69.8782 87.0201C69.8914 86.9754 71.2962 82.5199 74.3204 80.9832C75.5004 80.383 76.7913 80.3094 78.1567 80.7654C78.9175 81.0193 79.4884 81.8028 79.5761 82.7175C79.6155 83.1302 79.5965 84.1503 78.5714 84.7217C77.9595 85.0622 77.4382 85.117 77.1023 84.8746C76.8511 84.6928 76.7212 84.348 76.7869 84.0378C76.8205 83.8819 76.9168 83.6828 77.1914 83.6237C77.4294 83.5717 77.5798 83.3394 77.5273 83.1042C77.4747 82.869 77.2396 82.7204 77.0015 82.7724C76.4466 82.8936 76.0436 83.299 75.9239 83.8574C75.8319 84.2859 75.9224 84.7347 76.1458 85.0997C74.9177 85.1906 73.9189 85.596 73.1756 86.3146C71.7781 87.6665 71.8175 89.6101 71.8204 89.6923C71.8263 89.8828 71.9562 90.0473 72.1402 90.0992C72.6674 90.2478 73.1624 90.3214 73.6253 90.3214C74.4081 90.3214 75.0944 90.1093 75.6756 89.6851C77.0804 88.6592 77.4163 86.7013 77.4951 85.8918C77.8923 85.9135 78.3932 85.8197 79.0022 85.4806C80.0258 84.9107 80.5676 83.8473 80.4508 82.6353C80.331 81.3843 79.5206 80.3008 78.4356 79.94H78.4502ZM17.1906 86.9394C18.0113 87.7344 18.2158 88.8151 18.2654 89.346C17.2724 89.561 16.4546 89.4398 15.8311 88.9853C14.7826 88.2192 14.4715 86.697 14.381 85.9495C15.5843 85.9654 16.5276 86.2973 17.1906 86.9394ZM75.166 88.9853C74.5424 89.4398 73.7246 89.561 72.7316 89.346C72.7813 88.8136 72.9857 87.7344 73.8064 86.9394C74.4694 86.2973 75.4142 85.9654 76.616 85.9495C76.5255 86.6984 76.2159 88.2206 75.166 88.9853ZM75.2185 71.2526C75.2185 71.4936 75.0214 71.6884 74.7775 71.6884H72.1636C71.9197 71.6884 71.7226 71.4936 71.7226 71.2526C71.7226 71.0117 71.9197 70.8169 72.1636 70.8169H74.7775C75.0214 70.8169 75.2185 71.0117 75.2185 71.2526ZM84.2402 31.31C85.3063 31.31 86.1722 30.4529 86.1722 29.4011C86.1722 28.3493 85.3048 27.4922 84.2402 27.4922C83.1757 27.4922 82.3083 28.3493 82.3083 29.4011C82.3083 30.4529 83.1757 31.31 84.2402 31.31ZM84.2402 28.3637C84.82 28.3637 85.2902 28.8297 85.2902 29.4011C85.2902 29.9725 84.8185 30.4385 84.2402 30.4385C83.662 30.4385 83.1903 29.9725 83.1903 29.4011C83.1903 28.8297 83.662 28.3637 84.2402 28.3637ZM73.3464 12.9511C74.4124 12.9511 75.2784 12.094 75.2784 11.0422C75.2784 9.99033 74.411 9.13328 73.3464 9.13328C72.2819 9.13328 71.4145 9.99033 71.4145 11.0422C71.4145 12.094 72.2819 12.9511 73.3464 12.9511ZM73.3464 10.0048C73.9262 10.0048 74.3964 10.4708 74.3964 11.0422C74.3964 11.6135 73.9247 12.0796 73.3464 12.0796C72.7682 12.0796 72.2965 11.6135 72.2965 11.0422C72.2965 10.4708 72.7682 10.0048 73.3464 10.0048ZM48.8791 9.65126C49.0164 9.65848 49.1507 9.66281 49.2822 9.66281C50.6432 9.66281 51.696 9.25736 52.4189 8.45658C53.8135 6.90983 53.406 4.48006 53.3885 4.37762C53.3476 4.14243 53.1227 3.98372 52.8847 4.02123C47.8554 4.81481 48.46 9.23572 48.4673 9.28045C48.498 9.48533 48.6703 9.63972 48.8791 9.65126ZM52.5635 4.96919C52.6029 5.65743 52.5576 6.99496 51.7574 7.87943C51.2156 8.47966 50.3934 8.78555 49.3128 8.79132C49.2968 7.90108 49.564 5.64733 52.5635 4.96919ZM83.0764 33.4959C82.9771 33.5782 82.9202 33.7008 82.9202 33.8292C82.9202 33.9086 83.0136 41.7303 89.3863 42.5426C89.4053 42.5455 89.4243 42.547 89.4433 42.547C89.6536 42.547 89.839 42.3969 89.877 42.1862C89.9004 42.0521 90.4392 38.885 88.6036 36.3225C87.4894 34.7642 85.7487 33.7816 83.4327 33.3993C83.3042 33.3776 83.1742 33.4137 83.0749 33.4974L83.0764 33.4959ZM87.8808 36.8174C89.1352 38.5647 89.1279 40.7088 89.0578 41.6062C84.6915 40.7535 83.9526 35.9863 83.8284 34.3602C85.6319 34.7555 86.9929 35.5809 87.8808 36.8174ZM45.2649 8.97312C45.3058 8.99765 45.3496 9.01352 45.3948 9.02506H45.4007C45.4328 9.03228 45.4635 9.03805 45.4956 9.03805H45.5H45.5044C45.5365 9.03805 45.5686 9.03228 45.5993 9.02506H45.6051C45.6504 9.01496 45.6942 8.99909 45.7351 8.97312C46.9574 8.22716 47.6802 7.22871 47.8876 6.00372C48.3563 3.21612 45.9468 0.281349 45.8446 0.158706C45.7658 0.0634772 45.6548 0.0100915 45.5394 0.00143433C45.5263 0.00143433 45.5131 0.00143433 45.5014 0.00143433C45.4883 0.00143433 45.4752 0.00143433 45.4635 0.00143433C45.3481 0.0100915 45.2371 0.0634772 45.1583 0.158706C45.056 0.282791 42.6466 3.21756 43.1153 6.00372C43.3212 7.22871 44.0455 8.22861 45.2678 8.97312H45.2649ZM45.5 1.16149C46.1133 2.03586 47.3239 4.03999 47.0172 5.85943C46.8683 6.74823 46.3543 7.49131 45.5 8.07855C44.6457 7.49275 44.1317 6.74823 43.9827 5.85943C43.6761 4.03999 44.8867 2.03586 45.5 1.16149Z" fill="url(#paint0_linear_1_81)"/>
</g>
<defs>
<linearGradient id="paint0_linear_1_81" x1="45.9629" y1="84.4721" x2="44.8495" y2="-5.43559" gradientUnits="userSpaceOnUse">
<stop offset="0.18" stop-color="#A76F10"/>
<stop offset="0.34" stop-color="#B47F1D"/>
<stop offset="0.57" stop-color="#C2902B"/>
<stop offset="0.74" stop-color="#C89730"/>
</linearGradient>
<clipPath id="clip0_1_81">
<rect width="91" height="101" fill="white"/>
</clipPath>
</defs>
</svg>
