<svg width="377" height="85" viewBox="0 0 377 85" fill="none" xmlns="http://www.w3.org/2000/svg">
<path d="M89.5016 53V17.225H111.55C113.034 17.225 114.2 17.649 115.048 18.497C115.896 19.3097 116.32 20.3873 116.32 21.73V29.68C116.32 30.9167 115.913 32.065 115.101 33.125C114.323 34.1497 113.104 34.8563 111.444 35.245C113.104 35.6337 114.376 36.3403 115.26 37.365C116.143 38.3543 116.585 39.4497 116.585 40.651V48.442C116.585 49.8553 116.161 50.9683 115.313 51.781C114.465 52.5937 113.299 53 111.815 53H89.5016ZM107.469 38.902C107.469 38.7607 107.416 38.637 107.31 38.531C107.239 38.3897 107.115 38.319 106.939 38.319H98.6706V46.216H106.939C107.292 46.216 107.469 46.0393 107.469 45.686V38.902ZM107.469 24.91C107.469 24.7687 107.416 24.645 107.31 24.539C107.239 24.3977 107.115 24.327 106.939 24.327H98.6706V31.747H106.939C107.292 31.747 107.469 31.5527 107.469 31.164V24.91ZM125.887 17.225H135.056V45.262H146.451V53H125.887V17.225ZM175.527 17.225C176.764 17.225 177.771 17.6137 178.548 18.391C179.326 19.1683 179.714 20.1753 179.714 21.412V48.813C179.714 50.0497 179.326 51.0567 178.548 51.834C177.771 52.6113 176.764 53 175.527 53H157.136C155.9 53 154.893 52.6113 154.115 51.834C153.338 51.0567 152.949 50.0497 152.949 48.813V21.412C152.949 20.1753 153.338 19.1683 154.115 18.391C154.893 17.6137 155.9 17.225 157.136 17.225H175.527ZM170.492 25.546C170.492 25.1573 170.298 24.963 169.909 24.963H162.648C162.542 24.963 162.436 25.016 162.33 25.122C162.224 25.228 162.171 25.3693 162.171 25.546V44.785C162.171 44.9263 162.224 45.05 162.33 45.156C162.436 45.2267 162.542 45.262 162.648 45.262H169.909C170.298 45.262 170.492 45.103 170.492 44.785V25.546ZM215.466 39.644V48.919C215.466 50.085 215.042 51.0567 214.194 51.834C213.382 52.6113 212.41 53 211.279 53H193.312C192.182 53 191.21 52.6113 190.397 51.834C189.62 51.0567 189.231 50.085 189.231 48.919V21.253C189.231 20.1577 189.62 19.2213 190.397 18.444C191.21 17.6313 192.182 17.225 193.312 17.225H211.279C212.41 17.225 213.382 17.6313 214.194 18.444C215.042 19.2213 215.466 20.1577 215.466 21.253V30.475H206.244V25.493C206.244 25.3163 206.191 25.175 206.085 25.069C205.979 24.963 205.873 24.91 205.767 24.91H199.036C198.648 24.91 198.453 25.1043 198.453 25.493V44.732C198.453 45.0853 198.648 45.262 199.036 45.262H205.767C205.873 45.262 205.979 45.2267 206.085 45.156C206.191 45.05 206.244 44.9087 206.244 44.732V39.644H215.466ZM243.36 53L236.364 39.326L233.449 44.043V53H224.227V17.225H233.449V32.118L242.724 17.225H253.006L242.671 32.754L253.43 53H243.36ZM286.715 53H277.493V38.796H268.748V53H259.526V17.225H268.748V30.899H277.493V17.225H286.715V53ZM306.064 53H296.895V17.225H306.064V53ZM342.7 17.225L332.047 53H323.143L312.755 17.225H322.613L327.595 39.962L333.584 17.225H342.7ZM349.378 17.225H372.751V24.91H358.547V31.164H370.843V38.796H358.547V45.262H372.751V53H349.378V17.225Z" fill="white"/>
<g clip-path="url(#clip0_1_49)">
<path d="M19.6145 62.2164V57.9542H22.2872C22.4676 57.9542 22.6085 58.004 22.711 58.1024C22.8136 58.2019 22.8655 58.3307 22.8655 58.4909V59.4381C22.8655 59.585 22.8173 59.721 22.7209 59.8449C22.6245 59.9687 22.4762 60.0537 22.2748 60.1011C22.4762 60.1472 22.6307 60.231 22.737 60.35C22.8445 60.4702 22.8976 60.6014 22.8976 60.7447V61.6724C22.8976 61.8412 22.8457 61.9735 22.7431 62.0707C22.6406 62.1678 22.4985 62.2164 22.3193 62.2164H19.6145ZM21.7929 58.8698C21.7929 58.8528 21.788 58.837 21.7769 58.8224C21.7657 58.8079 21.7497 58.8006 21.7287 58.8006H20.7328V59.6846H21.7287C21.7719 59.6846 21.7929 59.6615 21.7929 59.6154V58.8698ZM21.7929 60.537C21.7929 60.52 21.788 60.5042 21.7769 60.4897C21.7657 60.4751 21.7497 60.4678 21.7287 60.4678H20.7328V61.4089H21.7287C21.7719 61.4089 21.7929 61.3882 21.7929 61.3457V60.537Z" fill="#A56E18"/>
<path d="M24.3495 57.9542H25.4677V61.2947H26.8492V62.2164H24.3495V57.9542Z" fill="#A56E18"/>
<path d="M30.6858 57.9542C30.8353 57.9542 30.9577 58.0004 31.0516 58.0927C31.1455 58.1849 31.1924 58.3052 31.1924 58.4521V61.7161C31.1924 61.863 31.1455 61.9832 31.0516 62.0755C30.9577 62.1678 30.8353 62.2139 30.6858 62.2139H28.4567C28.3072 62.2139 28.1849 62.1678 28.091 62.0755C27.9971 61.9832 27.9501 61.863 27.9501 61.7161V58.4521C27.9501 58.3052 27.9971 58.1849 28.091 58.0927C28.1849 58.0004 28.3072 57.9542 28.4567 57.9542H30.6858ZM30.0754 58.9451C30.0754 58.8989 30.052 58.8759 30.005 58.8759H29.1252C29.1129 58.8759 29.0993 58.8819 29.0869 58.8953C29.0746 58.9074 29.0672 58.9244 29.0672 58.9463V61.2389C29.0672 61.2559 29.0733 61.2692 29.0869 61.2802C29.0993 61.2911 29.1129 61.2959 29.1252 61.2959H30.005C30.052 61.2959 30.0754 61.2765 30.0754 61.2389V58.9463V58.9451Z" fill="#A56E18"/>
<path d="M35.8508 60.6244V61.7294C35.8508 61.8679 35.8001 61.9844 35.7 62.0767C35.5987 62.169 35.4801 62.2152 35.3429 62.2152H33.1645C33.0273 62.2152 32.9112 62.169 32.8148 62.0767C32.7184 61.9844 32.6702 61.8679 32.6702 61.7294V58.4339C32.6702 58.3039 32.7184 58.191 32.8148 58.0963C32.9112 58.0016 33.0273 57.9542 33.1645 57.9542H35.3429C35.4801 57.9542 35.5987 58.0016 35.7 58.0951C35.8001 58.1886 35.8508 58.3015 35.8508 58.4302V59.5255H34.7325V58.9317C34.7325 58.9111 34.7263 58.8941 34.7127 58.8807C34.7004 58.8686 34.6868 58.8613 34.6744 58.8613H33.8589C33.812 58.8613 33.7885 58.8844 33.7885 58.9305V61.2279C33.7885 61.2704 33.812 61.2911 33.8589 61.2911H34.6744C34.6868 61.2911 34.7004 61.2862 34.7127 61.2753C34.7251 61.2644 34.7325 61.2486 34.7325 61.2279V60.622H35.8508V60.6244Z" fill="#A56E18"/>
<path d="M39.5651 62.2164L38.7174 60.5868L38.364 61.149V62.2164H37.2458V57.9542H38.364V59.7283L39.4885 57.9542H40.7352L39.4823 59.8048L40.7871 62.2164H39.5663H39.5651Z" fill="#A56E18"/>
<path d="M45.1613 62.2164H44.0431V60.5237H42.9829V62.2164H41.8646V57.9542H42.9829V59.5838H44.0431V57.9542H45.1613V62.2164Z" fill="#A56E18"/>
<path d="M47.834 62.2164H46.7158V57.9542H47.834V62.2164Z" fill="#A56E18"/>
<path d="M52.5887 57.9542L51.2975 62.2164H50.2176L48.9584 57.9542H50.1533L50.7575 60.6633L51.4841 57.9542H52.5887Z" fill="#A56E18"/>
<path d="M53.7194 57.9542H56.5589V58.8637H54.8364V59.6154H56.3266V60.5249H54.8364V61.2947H56.5589V62.2164H53.7194V57.9542Z" fill="#A56E18"/>
<path d="M23.9009 66.5028H24.8301V66.8586H24.3223V67.5592H24.7362V67.9005H24.3223V68.623H24.8301V68.9787H23.9009V66.504V66.5028Z" fill="#A56E18"/>
<path d="M25.7766 67.5847V68.9775H25.422V66.5028H25.7729L26.2511 67.9915V66.5028H26.6057V68.9775H26.2585L25.7779 67.5847H25.7766Z" fill="#A56E18"/>
<path d="M28.4036 68.0571V68.7019C28.4036 68.7917 28.3764 68.8634 28.3233 68.918C28.2702 68.9727 28.1973 68.9994 28.1058 68.9994H27.5856C27.4966 68.9994 27.4237 68.9715 27.3681 68.9168C27.3125 68.8622 27.2841 68.7893 27.2841 68.6982V66.7845C27.2841 66.6922 27.3113 66.6182 27.3681 66.5623C27.4237 66.5077 27.4966 66.4797 27.5856 66.4797H28.1058C28.1973 66.4797 28.2702 66.5065 28.3233 66.5611C28.3764 66.6157 28.4036 66.6886 28.4036 66.7809V67.4147H27.9897V66.8756C27.9897 66.8489 27.981 66.8355 27.9637 66.8355H27.7327C27.7154 66.8355 27.7067 66.8489 27.7067 66.8756V68.606C27.7067 68.6302 27.7154 68.6424 27.7327 68.6424H27.9637C27.981 68.6424 27.9897 68.6302 27.9897 68.606V68.0559H28.4036V68.0571Z" fill="#A56E18"/>
<path d="M29.8777 66.481C29.9519 66.481 30.0136 66.5052 30.0618 66.5526C30.11 66.6 30.1347 66.6607 30.1347 66.7347V68.7432C30.1347 68.816 30.11 68.8767 30.0618 68.9241C30.0136 68.9715 29.9519 68.9957 29.8777 68.9957H29.2327C29.1561 68.9957 29.0931 68.9715 29.0461 68.9241C28.9992 68.8767 28.9757 68.816 28.9757 68.7432V66.7347C28.9757 66.6619 28.9992 66.6012 29.0461 66.5526C29.0931 66.5052 29.1561 66.481 29.2327 66.481H29.8777ZM29.7134 66.8622C29.7134 66.8501 29.7109 66.8404 29.706 66.8331C29.701 66.8258 29.6961 66.8222 29.6911 66.8222H29.4156C29.4057 66.8222 29.3995 66.827 29.3983 66.8367C29.3971 66.8465 29.3971 66.855 29.3971 66.8622V68.6072C29.3971 68.6072 29.3971 68.6193 29.4008 68.6278C29.4032 68.6363 29.4082 68.6412 29.4156 68.6412H29.6911C29.6911 68.6412 29.701 68.6387 29.706 68.6315C29.7109 68.6254 29.7134 68.6169 29.7134 68.6072V66.8622Z" fill="#A56E18"/>
<path d="M31.6274 66.5028C31.7324 66.5028 31.8164 66.5344 31.8795 66.5963C31.9425 66.6582 31.9746 66.7408 31.9746 66.844V68.6363C31.9746 68.7395 31.9425 68.8221 31.8795 68.884C31.8164 68.946 31.7324 68.9775 31.6274 68.9775H30.8143V66.5028H31.6274ZM31.5532 66.9169C31.5532 66.878 31.5335 66.8586 31.4939 66.8586H31.2369V68.6217H31.4939C31.5335 68.6217 31.5532 68.6023 31.5532 68.5635V66.9169Z" fill="#A56E18"/>
<path d="M32.653 66.5028H33.5822V66.8586H33.0743V67.5592H33.4882V67.9005H33.0743V68.623H33.5822V68.9787H32.653V66.504V66.5028Z" fill="#A56E18"/>
<path d="M34.9364 68.9775V66.5028H35.8434C35.9175 66.5028 35.978 66.5259 36.025 66.572C36.072 66.6182 36.0954 66.6789 36.0954 66.7517V67.4451C36.0954 67.5435 36.0707 67.6139 36.0213 67.6564C35.9719 67.6989 35.9088 67.7256 35.8322 67.7353C35.9088 67.7475 35.9706 67.7766 36.0176 67.8215C36.0645 67.8665 36.088 67.932 36.088 68.017V68.7274C36.088 68.8002 36.0645 68.8609 36.0176 68.9071C35.9706 68.9532 35.9113 68.9763 35.8397 68.9763H34.9364V68.9775ZM35.6753 66.9278C35.6753 66.889 35.6555 66.8683 35.616 66.8683H35.359V67.5544H35.616C35.6555 67.5544 35.6753 67.535 35.6753 67.4949V66.9278ZM35.6753 67.9539C35.6753 67.915 35.6555 67.8956 35.616 67.8956H35.359V68.6108H35.616C35.6555 68.6108 35.6753 68.5926 35.6753 68.5562V67.9551V67.9539Z" fill="#A56E18"/>
<path d="M37.8501 68.0571V68.7019C37.8501 68.7917 37.8229 68.8634 37.7698 68.918C37.7166 68.9727 37.6437 68.9994 37.5523 68.9994H37.0321C36.9431 68.9994 36.8702 68.9715 36.8146 68.9168C36.759 68.8622 36.7306 68.7893 36.7306 68.6982V66.7845C36.7306 66.6922 36.759 66.6182 36.8146 66.5623C36.8702 66.5064 36.9431 66.4797 37.0321 66.4797H37.5523C37.6437 66.4797 37.7166 66.5065 37.7698 66.5611C37.8229 66.6157 37.8501 66.6886 37.8501 66.7809V67.4147H37.4361V66.8756C37.4361 66.8489 37.4275 66.8355 37.4102 66.8355H37.1791C37.1618 66.8355 37.1532 66.8489 37.1532 66.8756V68.606C37.1532 68.6302 37.1618 68.6424 37.1791 68.6424H37.4102C37.4275 68.6424 37.4361 68.6302 37.4361 68.606V68.0559H37.8501V68.0571Z" fill="#A56E18"/>
<path d="M39.2043 67.4633H39.8308V68.0753H39.2043V67.4633Z" fill="#A56E18"/>
<path d="M41.5731 68.9957C41.4779 68.9957 41.405 68.9678 41.3506 68.9132C41.2975 68.8585 41.2703 68.7857 41.2703 68.6946V66.7845C41.2703 66.6922 41.2975 66.6182 41.3506 66.5623C41.4038 66.5064 41.4779 66.4797 41.5731 66.4797H42.375V66.8647H41.7189C41.7016 66.8647 41.6929 66.878 41.6929 66.9047V68.5768C41.6929 68.6011 41.7016 68.6132 41.7189 68.6132H41.9648C41.9845 68.6132 41.9944 68.6011 41.9944 68.5768V67.8142H41.8523V67.4657H42.4936V67.8142H42.37V68.6946C42.37 68.7857 42.3429 68.8573 42.2885 68.9132C42.2341 68.9678 42.1587 68.9957 42.0648 68.9957H41.5718H41.5731Z" fill="#A56E18"/>
<path d="M43.6131 68.153H43.471V68.9775H43.0496V66.5028H43.8997C43.9949 66.5028 44.069 66.5307 44.1222 66.5854C44.1753 66.64 44.2025 66.7141 44.2025 66.8076V67.8482C44.2025 67.9187 44.1852 67.9794 44.1518 68.0304C44.1184 68.0802 44.0727 68.1154 44.0159 68.1348L44.2062 68.9775H43.7885L43.6131 68.153ZM43.7885 66.895C43.7885 66.8707 43.7799 66.8586 43.7626 66.8586H43.471V67.8118H43.7626C43.7626 67.8118 43.7725 67.8082 43.7799 67.8009C43.7861 67.7936 43.7898 67.7863 43.7898 67.779V66.895H43.7885Z" fill="#A56E18"/>
<path d="M45.7248 66.481C45.7989 66.481 45.8607 66.5052 45.9089 66.5526C45.9571 66.6 45.9818 66.6607 45.9818 66.7347V68.7432C45.9818 68.816 45.9571 68.8767 45.9089 68.9241C45.8607 68.9715 45.7989 68.9957 45.7248 68.9957H45.0798C45.0032 68.9957 44.9401 68.9715 44.8932 68.9241C44.8462 68.8767 44.8228 68.816 44.8228 68.7432V66.7347C44.8228 66.6619 44.8462 66.6012 44.8932 66.5526C44.9401 66.5052 45.0032 66.481 45.0798 66.481H45.7248ZM45.5604 66.8622C45.5604 66.8501 45.558 66.8404 45.553 66.8331C45.5481 66.8258 45.5431 66.8222 45.5382 66.8222H45.2626C45.2528 66.8222 45.2466 66.827 45.2453 66.8367C45.2441 66.8465 45.2441 66.855 45.2441 66.8622V68.6072C45.2441 68.6072 45.2441 68.6193 45.2478 68.6278C45.2503 68.6363 45.2552 68.6412 45.2626 68.6412H45.5382C45.5382 68.6412 45.5481 68.6387 45.553 68.6315C45.558 68.6254 45.5604 68.6169 45.5604 68.6072V66.8622Z" fill="#A56E18"/>
<path d="M47.0827 66.5028V68.6035C47.0827 68.6132 47.0852 68.6217 47.0902 68.6278C47.0951 68.6339 47.1 68.6375 47.105 68.6375H47.3583C47.3583 68.6375 47.3682 68.6351 47.3731 68.6278C47.3781 68.6205 47.3805 68.6132 47.3805 68.6035V66.5028H47.8056V68.6764C47.8056 68.7662 47.7772 68.8391 47.7216 68.895C47.666 68.9508 47.5906 68.9775 47.4954 68.9775H46.9654C46.8715 68.9775 46.7961 68.9496 46.7417 68.895C46.6873 68.8403 46.6602 68.7675 46.6602 68.6764V66.5028H47.0815H47.0827Z" fill="#A56E18"/>
<path d="M48.9337 68.2927V68.9787H48.5087V66.504H49.3551C49.449 66.504 49.5244 66.532 49.5812 66.5866C49.6368 66.6412 49.6652 66.7153 49.6652 66.8088V67.9891C49.6652 68.0826 49.6368 68.1555 49.5812 68.2113C49.5256 68.266 49.4502 68.2939 49.3551 68.2939H48.9337V68.2927ZM49.213 67.9515C49.2204 67.9515 49.2266 67.9478 49.2315 67.9405C49.2365 67.9332 49.2389 67.926 49.2389 67.9187V66.8962C49.2389 66.872 49.2303 66.8598 49.213 66.8598H48.9337V67.9527H49.213V67.9515Z" fill="#A56E18"/>
<path d="M51.515 67.9587C51.4853 67.9587 51.4705 67.9733 51.4705 68.0025V68.6363H52.1044V68.9775H51.0491V67.8482C51.0491 67.7608 51.0751 67.6904 51.127 67.6394C51.1789 67.5884 51.2505 67.5629 51.3395 67.5629H51.6336C51.6632 67.5629 51.6781 67.5483 51.6781 67.5192V66.889C51.6781 66.8598 51.6632 66.8452 51.6336 66.8452H51.085V66.504H51.809C51.898 66.504 51.9697 66.5295 52.0216 66.5805C52.0735 66.6315 52.0994 66.702 52.0994 66.7894V67.6734C52.0994 67.7608 52.0735 67.8312 52.0216 67.8822C51.9697 67.9332 51.898 67.9587 51.809 67.9587H51.5137H51.515Z" fill="#A56E18"/>
<path d="M35.553 76.0641C34.1913 76.0544 33.1818 76.4356 32.5368 77.2116C31.4544 78.5145 31.856 80.4149 31.8733 80.495C31.9103 80.665 32.0648 80.784 32.2378 80.784C32.2539 80.784 32.2687 80.784 32.2847 80.7816C36.2845 80.2837 35.9237 76.432 35.92 76.3932C35.9002 76.2074 35.7421 76.0665 35.553 76.0641ZM32.5541 79.9959C32.5035 79.4592 32.501 78.4113 33.1163 77.673C33.5562 77.1448 34.2519 76.8534 35.1873 76.8048C35.17 77.5965 34.8845 79.5272 32.5541 79.9959ZM1.31472 35.8081C1.33078 35.8081 1.34685 35.8081 1.36291 35.8044C6.75523 35.1208 6.83431 28.5382 6.83431 28.4714C6.83431 28.3633 6.78613 28.2613 6.7021 28.1909C6.61808 28.1217 6.50687 28.0901 6.39937 28.1083C4.43965 28.4301 2.968 29.257 2.02398 30.5684C0.47078 32.7262 0.926731 35.3916 0.946501 35.5033C0.978628 35.6806 1.13555 35.8069 1.31349 35.8069L1.31472 35.8081ZM2.63685 30.9874C3.38812 29.9467 4.54097 29.2522 6.06575 28.9194C5.96072 30.2879 5.33549 34.2999 1.64093 35.0176C1.58162 34.2623 1.57544 32.4579 2.63685 30.9874ZM21.3988 76.585C20.4968 76.585 19.764 77.3063 19.764 78.1915C19.764 79.0767 20.498 79.798 21.3988 79.798C22.2996 79.798 23.0335 79.0767 23.0335 78.1915C23.0335 77.3063 22.2996 76.585 21.3988 76.585ZM21.3988 79.0646C20.9082 79.0646 20.5104 78.6724 20.5104 78.1915C20.5104 77.7106 20.9095 77.3184 21.3988 77.3184C21.8881 77.3184 22.2872 77.7106 22.2872 78.1915C22.2872 78.6724 21.8881 79.0646 21.3988 79.0646ZM35.2985 8.13329C35.4097 8.13329 35.5234 8.12965 35.6395 8.12358C35.8162 8.11386 35.962 7.98393 35.988 7.81151C35.9941 7.77386 36.5057 4.05329 32.2501 3.38544C32.0487 3.35265 31.8584 3.48744 31.8239 3.68536C31.809 3.77158 31.4643 5.81643 32.6443 7.11815C33.256 7.79329 34.1481 8.13329 35.2985 8.13329ZM32.5208 4.18322C35.0588 4.75394 35.2836 6.65065 35.2713 7.39986C34.3569 7.39501 33.6612 7.13758 33.2028 6.63243C32.5257 5.88808 32.4886 4.76365 32.5208 4.18322ZM5.71853 26.3512C6.62055 26.3512 7.35328 25.6299 7.35328 24.7447C7.35328 23.8595 6.61931 23.1382 5.71853 23.1382C4.81775 23.1382 4.08379 23.8595 4.08379 24.7447C4.08379 25.6299 4.81775 26.3512 5.71853 26.3512ZM5.71853 23.8717C6.20908 23.8717 6.60696 24.2639 6.60696 24.7447C6.60696 25.2256 6.20785 25.6178 5.71853 25.6178C5.22922 25.6178 4.83011 25.2256 4.83011 24.7447C4.83011 24.2639 5.22922 23.8717 5.71853 23.8717ZM14.9364 10.9006C15.8384 10.9006 16.5711 10.1794 16.5711 9.29415C16.5711 8.40893 15.8372 7.68765 14.9364 7.68765C14.0356 7.68765 13.3016 8.40893 13.3016 9.29415C13.3016 10.1794 14.0356 10.9006 14.9364 10.9006ZM14.9364 8.42108C15.4269 8.42108 15.8248 8.81329 15.8248 9.29415C15.8248 9.77501 15.4257 10.1672 14.9364 10.1672C14.4471 10.1672 14.048 9.77501 14.048 9.29415C14.048 8.81329 14.4471 8.42108 14.9364 8.42108ZM16.3092 59.9663C16.3092 60.1691 16.1424 60.333 15.936 60.333H13.7242C13.5179 60.333 13.3511 60.1691 13.3511 59.9663C13.3511 59.7635 13.5179 59.5996 13.7242 59.5996H15.936C16.1424 59.5996 16.3092 59.7635 16.3092 59.9663ZM61.5508 47.0815L59.2167 45.8053L59.1735 43.1849C59.1722 43.078 59.1117 42.9784 59.0165 42.9262L56.5304 41.5674C56.4341 41.5152 56.3179 41.5164 56.224 41.5723L53.7836 43.0088C53.6897 43.0646 53.6329 43.1642 53.6341 43.2723L53.6773 45.8927L51.3889 47.2394C51.295 47.2952 51.2382 47.3948 51.2394 47.5029L51.2851 50.2969C51.2864 50.4038 51.3469 50.5034 51.4421 50.5556L53.9269 51.9144C53.9739 51.9399 54.0246 51.952 54.0765 51.952C54.1308 51.952 54.1852 51.9374 54.2334 51.9095L56.5218 50.5629L58.8559 51.8379C58.9029 51.8634 58.9535 51.8755 59.0054 51.8755C59.0598 51.8755 59.1141 51.8609 59.1623 51.833L61.6027 50.3965C61.6966 50.3406 61.7535 50.2411 61.7522 50.133L61.7065 47.3389C61.7053 47.2321 61.6447 47.1325 61.5496 47.0803L61.5508 47.0815ZM54.0727 51.3036L51.8968 50.1136L51.8572 47.6668L53.9937 46.4088L55.0823 47.0038L56.1709 47.5988L56.2104 50.0456L54.074 51.3024L54.0727 51.3036ZM56.4674 47.073L55.3788 46.478L54.2902 45.883L54.2507 43.4362L56.3871 42.1782L58.5631 43.3682L58.6026 45.815L56.4662 47.0718L56.4674 47.073ZM59.0017 51.2271L56.8257 50.0371L56.7862 47.5903L58.9226 46.3335L61.0986 47.5235L61.1381 49.9703L59.0017 51.2271ZM38.7348 77.2189C38.6656 77.1642 38.5816 77.1399 38.5 77.1412C38.4172 77.1412 38.3344 77.1642 38.2652 77.2189C38.196 77.2735 36.5526 78.5777 36.3994 80.6626C36.2944 82.0882 36.9085 83.5089 38.2257 84.8834C38.2986 84.9599 38.3987 84.9988 38.4975 84.9988H38.5H38.5025C38.6013 84.9988 38.7014 84.9599 38.7743 84.8834C40.0915 83.5089 40.7056 82.0882 40.6006 80.6626C40.4474 78.5777 38.804 77.2735 38.7348 77.2189ZM38.5 84.0856C37.5177 82.9624 37.0605 81.8295 37.1433 80.7148C37.2421 79.3815 38.0848 78.404 38.5 77.9984C38.9152 78.4028 39.7591 79.3803 39.8567 80.7148C39.9395 81.8295 39.4811 82.9624 38.5 84.0856ZM38.5 8.79386C38.9238 8.79386 39.2673 9.13143 39.2673 9.54793C39.2673 9.96443 38.9238 10.302 38.5 10.302C38.0762 10.302 37.7327 9.96443 37.7327 9.54793C37.7327 9.13143 38.0762 8.79386 38.5 8.79386ZM77 40.3701C77 40.3592 76.9963 40.3471 76.9938 40.3361C76.9913 40.324 76.9901 40.3119 76.9864 40.3009C76.9827 40.29 76.9778 40.2791 76.9728 40.2669C76.9679 40.256 76.9642 40.2451 76.9592 40.2354C76.9518 40.2208 76.9419 40.2074 76.932 40.1941C76.9283 40.188 76.9246 40.1819 76.9197 40.1759C76.9073 40.1613 76.8937 40.1479 76.8789 40.1346C76.8752 40.1309 76.8715 40.1261 76.8678 40.1236C76.8616 40.1188 76.8554 40.1151 76.8493 40.1115C76.8357 40.1018 76.8208 40.0909 76.806 40.0836H76.8048C67.2916 35.1961 68.1726 28.3548 68.7558 23.8279C68.8003 23.4855 68.8423 23.1564 68.8794 22.8407C69.1302 20.6696 68.7336 18.9732 67.6994 17.7978C66.9333 16.9272 65.988 16.541 65.317 16.3686C65.731 15.8902 66.0621 15.1094 65.6457 13.9291C65.5975 13.7931 65.5283 13.6559 65.4394 13.5223C64.7165 12.4355 63.6774 12.0846 62.6592 12.5824C62.3651 12.7269 62.1625 12.9771 62.1032 13.2685C62.055 13.5029 62.0599 13.9582 62.6332 14.3711C62.7988 14.4901 63.0324 14.4561 63.1547 14.2921C63.277 14.1294 63.2412 13.8999 63.0744 13.7797C62.8927 13.6486 62.8112 13.5247 62.8347 13.413C62.8482 13.3462 62.9088 13.2794 62.9928 13.2381C63.8899 12.7986 64.5201 13.4786 64.8154 13.923C64.871 14.0068 64.913 14.0894 64.9414 14.1683C65.2491 15.0414 65.0823 15.7141 64.4459 16.1682C64.221 16.3297 63.9356 16.4317 63.6193 16.4633C62.5183 16.5762 61.6336 16.3504 60.9898 15.7894C59.5577 14.5447 59.5108 11.951 59.4848 10.5582C59.4774 10.1344 59.4725 9.85515 59.4305 9.68272C59.3983 9.54915 59.3613 9.43136 59.3168 9.32208C58.8757 8.21708 58.243 7.54315 57.4386 7.31729C56.6478 7.09508 55.9114 7.37679 55.5135 7.58565C55.4344 7.50308 55.3504 7.42415 55.259 7.35129C51.903 4.65072 47.3225 7.24686 46.9864 7.44358C42.4788 9.67422 39.2154 11.1144 38.5049 11.424C37.7945 11.1144 34.5311 9.67422 30.0235 7.44358C29.6887 7.24686 25.1069 4.65072 21.7509 7.35129C21.6595 7.42415 21.5755 7.50308 21.4964 7.58565C21.0985 7.37679 20.3621 7.09508 19.5713 7.31729C18.7669 7.54315 18.1342 8.21829 17.6931 9.32208C17.6486 9.43136 17.6115 9.55036 17.5794 9.68272C17.5374 9.85515 17.5325 10.1344 17.5251 10.5582C17.4991 11.951 17.4521 14.5435 16.02 15.7894C15.375 16.3491 14.4903 16.5762 13.3906 16.4633C13.0755 16.4305 12.7901 16.3285 12.564 16.1682C11.9276 15.7141 11.7608 15.0401 12.0685 14.1683C12.0969 14.0894 12.1389 14.0068 12.1945 13.923C12.4898 13.4786 13.12 12.7986 14.0171 13.2381C14.1011 13.2794 14.1616 13.3462 14.1752 13.413C14.1987 13.5247 14.1172 13.6486 13.9355 13.7797C13.7699 13.8999 13.7341 14.1294 13.8552 14.2921C13.9775 14.4561 14.2111 14.4901 14.3766 14.3711C14.95 13.9582 14.9549 13.5029 14.9067 13.2685C14.8474 12.9759 14.6435 12.7257 14.3507 12.5824C13.3325 12.0846 12.2934 12.4355 11.5705 13.5223C11.4815 13.6559 11.4124 13.7931 11.3642 13.9291C10.9478 15.1094 11.2789 15.8902 11.6928 16.3686C11.0219 16.541 10.0766 16.9272 9.31053 17.7978C8.2763 18.9732 7.87966 20.6708 8.1305 22.8407C8.16633 23.1552 8.20958 23.4855 8.25406 23.8279C8.83728 28.356 9.71829 35.1973 0.205118 40.0836H0.203883C0.189055 40.0909 0.174228 40.1018 0.160635 40.1115C0.154457 40.1164 0.147043 40.1188 0.142101 40.1236C0.138394 40.1273 0.134687 40.1309 0.13098 40.1346C0.116153 40.1479 0.102561 40.1601 0.0902041 40.1759C0.0852616 40.1819 0.0827903 40.188 0.0778478 40.1941C0.0679627 40.2074 0.0580776 40.2208 0.0506637 40.2354C0.0444856 40.2463 0.0407786 40.2572 0.0370717 40.2669C0.0321292 40.2779 0.0271866 40.2888 0.0234797 40.3009C0.0197728 40.3131 0.0185372 40.3252 0.0160659 40.3361C0.0135946 40.3471 0.0111233 40.358 0.0098877 40.3701C0.0098877 40.3811 0.0098877 40.3932 0.0098877 40.4041C0.0098877 40.4163 0.0098877 40.4284 0.0098877 40.4406C0.0098877 40.4527 0.0135946 40.4636 0.0160659 40.4758C0.0185372 40.4867 0.0197728 40.4989 0.0234797 40.5098C0.0284223 40.5256 0.0358361 40.5401 0.0420143 40.5559C0.0444856 40.562 0.0469568 40.5693 0.0494281 40.5754C0.0630201 40.6021 0.0815547 40.6264 0.102561 40.6494C0.108739 40.6567 0.116153 40.6628 0.122331 40.6689C0.129745 40.6762 0.135923 40.6834 0.144572 40.6895C1.73854 41.9548 1.9276 44.6286 2.12653 47.4591C2.35019 50.6454 2.60102 54.1887 5.11678 55.9664H0.93538C0.753742 55.9664 0.589402 56.0696 0.512792 56.2311C0.436183 56.3926 0.460895 56.5833 0.577045 56.7193L4.11962 61.2826L0.577045 65.6455C0.460895 65.7815 0.436183 65.9722 0.512792 66.1337C0.589402 66.2952 0.753742 66.3984 0.93538 66.3984H12.302C12.4589 66.3984 12.6047 66.3206 12.6912 66.1932C12.7777 66.0644 12.7926 65.9029 12.7308 65.7609L12.4009 64.3997H38.4963H38.5H38.5037H64.5991L64.2692 65.7609C64.2074 65.9029 64.2223 66.0644 64.3088 66.1932C64.3953 66.3219 64.5411 66.3984 64.698 66.3984H76.0646C76.2463 66.3984 76.4106 66.2952 76.4872 66.1337C76.5638 65.9722 76.5391 65.7815 76.423 65.6455L72.8804 61.2826L76.423 56.7193C76.5391 56.5833 76.5638 56.3926 76.4872 56.2311C76.4106 56.0696 76.2463 55.9664 76.0646 55.9664H71.8906C74.4064 54.1887 74.6572 50.6454 74.8809 47.4591C75.0798 44.6286 75.2689 41.9548 76.8628 40.6895C76.8715 40.6834 76.8777 40.6749 76.8851 40.6689C76.8925 40.6628 76.8987 40.6567 76.9049 40.6494C76.9259 40.6264 76.9444 40.6021 76.958 40.5754C76.9617 40.5693 76.9629 40.562 76.9654 40.5559C76.9728 40.5414 76.979 40.5256 76.9839 40.5098C76.9876 40.4989 76.9889 40.4867 76.9914 40.4758C76.9938 40.4636 76.9963 40.4527 76.9975 40.4406C76.9975 40.4284 76.9975 40.4163 76.9975 40.4041C76.9975 40.3932 76.9975 40.3811 76.9975 40.3701H77ZM1.93378 65.484L5.08589 61.5801C5.23046 61.4101 5.23046 61.1624 5.08589 60.9924L1.93378 56.8869H8.94231L9.23763 63.9625C9.24752 64.2078 9.45387 64.4021 9.70347 64.4021H11.3876L11.5965 65.4852H1.93378V65.484ZM65.3059 63.4841H38.5037H38.5H38.4963H10.1508L9.85668 56.4485H38.4963H38.5H38.5037H67.1433L66.8492 63.4841H65.3047H65.3059ZM13.356 24.9026C12.7543 24.2894 12.3626 22.6817 12.1945 21.7406C12.2427 20.7837 12.4911 20.2579 12.7382 19.9714C12.9964 20.7594 13.5747 22.1984 14.4965 22.797C14.52 22.8128 14.5459 22.8249 14.5719 22.8347L23.807 26.214C24.6411 27.4987 25.1687 28.2819 25.5073 28.7628C20.2768 28.4155 13.896 25.1807 13.356 24.9026ZM25.9323 29.3347C26.0584 29.4877 26.1103 29.5278 26.1473 29.5472C26.1597 29.5557 26.177 29.5691 26.198 29.5849C27.64 30.6571 29.638 31.0359 31.5397 31.0991C30.0038 31.4986 28.3567 31.7876 26.754 31.9964C23.98 31.7329 20.6673 30.6595 20.199 30.5041C19.2278 29.5946 18.9497 28.441 18.8694 27.8412C21.0763 28.6001 23.6143 29.257 25.9336 29.3359L25.9323 29.3347ZM12.9915 25.3227C13.01 25.3409 13.031 25.3567 13.0545 25.3689C13.2189 25.4551 15.4072 26.5953 18.2825 27.6335C18.3097 28.0488 18.4419 29.0263 19.0609 29.9965C17.3434 29.9892 15.8668 29.6225 15.6234 29.5581C14.3186 28.7701 13.4326 27.4623 13.0508 26.8139C12.8049 25.9882 12.622 25.2584 12.4874 24.6112C12.6356 24.8941 12.8024 25.1418 12.9927 25.3239L12.9915 25.3227ZM13.959 28.9255C14.3581 29.3323 14.8277 29.7282 15.3664 30.0475C15.3874 30.0597 15.4109 30.0694 15.4344 30.0767C15.5085 30.0973 17.1395 30.5466 19.1054 30.5466C19.2241 30.5466 19.3451 30.5429 19.465 30.5393C19.5849 30.6777 19.7158 30.8137 19.8592 30.9449C19.8876 30.9704 19.921 30.991 19.958 31.0032C20.0804 31.0444 22.2341 31.773 24.6077 32.232C21.08 32.5587 18.1738 32.5319 17.8228 32.5271C15.9731 32.1312 14.7041 30.4082 13.9442 28.9595C13.9491 28.9486 13.9553 28.9364 13.959 28.9243V28.9255ZM19.4477 33.2556C20.781 33.2338 22.7827 33.1597 25.0118 32.9411C25.1934 33.1524 25.5443 33.5301 26.0225 33.9138C24.5805 35.0346 21.6101 35.36 21.3222 35.3891C20.5079 35.3236 19.8258 34.7844 19.4798 34.4554C19.3155 34.1518 19.2339 33.9563 19.2315 33.949C19.0721 33.5993 19.3081 33.3601 19.4489 33.2556H19.4477ZM26.481 34.2538C27.0419 34.6339 27.7215 34.969 28.4777 35.0892C28.4975 35.0929 28.5173 35.0941 28.5371 35.0941C28.5778 35.0941 28.6186 35.088 28.6581 35.0746C28.6767 35.0686 28.7459 35.0443 28.8559 35.0066C28.9226 35.0297 29.0128 35.0589 29.1203 35.0941C28.3801 35.5215 27.2137 35.9586 26.3302 36.2537C26.1943 36.1979 26.0324 36.2234 25.9224 36.3314C25.9002 36.3533 25.8817 36.3788 25.8668 36.4043C25.7322 36.4468 25.6098 36.4844 25.506 36.5148C24.9129 36.4929 24.1036 35.9635 23.5747 35.5506C24.5892 35.2956 25.7272 34.8889 26.4797 34.2562L26.481 34.2538ZM21.3049 35.9404C21.311 35.9404 21.3185 35.9404 21.3246 35.9404C21.3333 35.9404 21.3419 35.9404 21.3506 35.9404C21.4136 35.9344 22.0549 35.8736 22.8927 35.7036C23.2708 36.0327 24.5398 37.0637 25.5443 37.0637C25.5715 37.0637 25.5975 37.06 25.6234 37.0527C25.6506 37.0454 25.7939 37.0029 26.0139 36.9337C26.0781 36.9908 26.1708 37.0697 26.2907 37.1584L24.8944 37.5979C24.221 37.7084 22.7777 37.5226 22.1661 37.4328C21.3592 36.9216 20.7303 36.2683 20.2657 35.6648C20.5771 35.8069 20.9268 35.9137 21.3049 35.9404ZM24.3643 38.1808C24.609 38.1808 24.8326 38.1674 25.0118 38.1359C25.0241 38.1334 25.0365 38.131 25.0476 38.1274L26.9072 37.5421C27.226 37.7012 27.5967 37.8262 27.981 37.8262C28.0354 37.8262 28.091 37.8238 28.1466 37.8189C28.1664 37.8177 28.1861 37.8141 28.2047 37.8092C28.2047 37.8092 28.7669 37.6635 29.4032 37.4984C26.8405 39.1595 24.4693 38.4759 23.6563 38.1541C23.8985 38.1711 24.1394 38.182 24.3631 38.182L24.3643 38.1808ZM28.0465 37.0904C27.6363 37.1171 27.1853 36.8851 26.8541 36.6556C27.8241 36.3193 29.1215 35.8129 29.8135 35.3005C30.3707 35.4571 31.0454 35.6186 31.5903 35.6611C31.5965 35.6611 31.6027 35.6611 31.6101 35.6611C31.2975 35.9574 31.0182 36.2027 30.8267 36.3666C30.2175 36.5269 28.3134 37.0187 28.0465 37.0879V37.0904ZM29.9803 34.5841C31.0763 34.153 32.6455 33.4706 33.8861 32.6801C33.8861 32.7068 33.8861 32.7335 33.8861 32.7602C33.7774 33.0504 33.6044 33.3577 33.3906 33.6661L31.814 34.8792C31.7658 34.9168 31.7077 34.9338 31.6521 34.9301C31.1529 34.8901 30.5104 34.7346 29.9803 34.5841ZM28.5062 34.3485C27.4003 34.1409 26.4661 33.371 25.9348 32.844C28.6495 32.5356 31.5928 32.0037 34.0196 31.0918C33.985 31.3031 33.9578 31.5265 33.9356 31.7584C32.1451 33.048 29.0696 34.153 28.5062 34.3497V34.3485ZM26.6478 28.9996C26.6082 28.9704 26.5798 28.9486 26.5514 28.9304C26.3846 28.747 25.7025 27.7464 24.9735 26.6402L34.2519 30.0366C34.2333 30.1009 34.2148 30.1653 34.1975 30.2333C34.1567 30.2503 34.116 30.2673 34.074 30.2831C30.7587 30.5903 28.1911 30.1471 26.6478 28.9996ZM14.8758 22.1619C14.153 21.6641 13.6229 20.3223 13.3918 19.5682C13.9825 19.4116 14.5904 19.6362 14.5978 19.6386C18.6161 20.9744 32.3206 28.0658 34.5262 29.2121C34.5101 29.2509 34.4953 29.2947 34.4792 29.3372L14.8746 22.1619H14.8758ZM28.3134 19.8609C28.2949 19.7103 28.1552 19.601 28.002 19.6204C27.8488 19.6387 27.7388 19.7759 27.7574 19.9264C27.7895 20.1875 27.7895 20.4947 27.7821 20.7412C27.5757 20.5955 27.3842 20.4668 27.2137 20.3624C27.0382 20.2555 26.8084 20.3077 26.6997 20.4789C26.5909 20.6502 26.6441 20.8772 26.8183 20.9841C28.5531 22.049 32.6542 25.7429 33.0508 26.1023C33.3919 26.5977 33.812 27.5036 34.0987 28.1617C31.3111 26.7179 23.8194 22.8699 18.7286 20.5567C18.7483 20.5312 18.7669 20.5056 18.7829 20.4765L22.328 14.2557H38.4951H38.4988H38.5025H54.6696L58.2146 20.4765C58.2307 20.5044 58.2492 20.5312 58.269 20.5567C53.1781 22.8699 45.6865 26.7179 42.8989 28.1617C43.1855 27.5048 43.6057 26.5977 43.9467 26.1023C44.3433 25.7441 48.4457 22.0502 50.1793 20.9841C50.3535 20.8772 50.4066 20.6502 50.2979 20.4789C50.1891 20.3065 49.9593 20.2543 49.7838 20.3624C49.6133 20.4668 49.4218 20.5955 49.2155 20.7412C49.208 20.4947 49.208 20.1875 49.2402 19.9264C49.2587 19.7759 49.1487 19.6387 48.9955 19.6204C48.8423 19.601 48.7027 19.7103 48.6841 19.8609C48.6273 20.3284 48.6569 20.8991 48.6742 21.1371C46.586 22.712 43.5612 25.4527 43.4092 25.5911C43.3894 25.6093 43.3709 25.6287 43.3561 25.6506C43.0348 26.1047 42.6604 26.8722 42.3675 27.5206C42.3675 27.5145 42.3675 27.5096 42.3675 27.5036C42.3675 27.4902 42.3675 27.4757 42.3675 27.4623C42.349 26.0719 41.7522 25.1248 41.0343 24.4885C41.6348 23.8571 42.9829 22.2907 43.2028 20.7206C43.2708 20.4911 43.4364 19.5864 42.632 17.8039C42.548 17.6181 42.328 17.5355 42.1402 17.6169C41.9524 17.6994 41.8671 17.9156 41.9499 18.1001C42.7086 19.7807 42.4886 20.5093 42.4886 20.5093C42.4775 20.536 42.4713 20.5652 42.4676 20.5931C42.286 21.9968 40.9565 23.4989 40.4387 24.038C40.1965 23.8826 39.9556 23.7563 39.7307 23.6531C39.6924 23.6106 39.6442 23.5742 39.5861 23.5523C39.5367 23.5341 39.486 23.5268 39.4366 23.528C38.9424 23.3349 38.5816 23.2669 38.5692 23.2645C38.5581 23.2621 38.547 23.2633 38.5346 23.2621C38.5235 23.2621 38.5124 23.2597 38.5 23.2597C38.4889 23.2597 38.4765 23.2609 38.4654 23.2621C38.4543 23.2621 38.4432 23.2621 38.4308 23.2645C38.4185 23.2669 38.0576 23.3337 37.5634 23.528C37.514 23.5256 37.4633 23.5329 37.4139 23.5523C37.3558 23.5742 37.3076 23.6106 37.2693 23.6531C37.0444 23.7551 36.8035 23.8826 36.5613 24.038C36.0436 23.4989 34.7152 21.9968 34.5324 20.5931C34.5287 20.5639 34.5212 20.536 34.5114 20.5093C34.5114 20.5093 34.2914 19.7807 35.0501 18.1001C35.1341 17.9156 35.0489 17.6982 34.8598 17.6169C34.672 17.5343 34.4508 17.6181 34.368 17.8039C33.5636 19.5864 33.7292 20.4911 33.7972 20.7206C34.0171 22.2907 35.364 23.8583 35.9657 24.4885C35.2478 25.1248 34.651 26.0732 34.6325 27.4623C34.6312 27.4757 34.6325 27.489 34.6325 27.5036C34.6325 27.5096 34.6325 27.5145 34.6325 27.5206C34.3396 26.8722 33.9652 26.1047 33.6439 25.6506C33.6291 25.6287 33.6106 25.6093 33.5908 25.5911C33.4388 25.4527 30.4128 22.712 28.3258 21.1371C28.3431 20.8991 28.3727 20.3284 28.3159 19.8609H28.3134ZM50.4474 28.9291C50.419 28.9474 50.3893 28.9692 50.351 28.9984C48.8077 30.1459 46.24 30.5891 42.9248 30.2819C42.8828 30.2649 42.842 30.2479 42.8013 30.2321C42.784 30.1641 42.7654 30.1009 42.7469 30.0354L52.0253 26.639C51.2963 27.7452 50.6142 28.7458 50.4474 28.9291ZM51.0664 29.3335C53.3857 29.2546 55.9225 28.5977 58.1306 27.8387C58.0503 28.4386 57.7722 29.5934 56.801 30.5017C56.3327 30.6571 53.02 31.7317 50.246 31.994C48.6434 31.7852 46.9962 31.4961 45.4604 31.0966C47.362 31.0335 49.36 30.6546 50.802 29.5824C50.823 29.5667 50.8403 29.5545 50.8527 29.5448C50.8885 29.5254 50.9416 29.4865 51.0677 29.3323L51.0664 29.3335ZM51.064 32.8428C50.5339 33.3698 49.5985 34.1396 48.4926 34.3473C47.9304 34.1506 44.8537 33.0468 43.0632 31.756C43.041 31.5241 43.0126 31.3006 42.9792 31.0894C45.4047 32.0013 48.3493 32.5331 51.064 32.8416V32.8428ZM50.5178 34.2526C51.2703 34.8852 52.4083 35.292 53.4228 35.547C52.894 35.9599 52.0858 36.4893 51.4915 36.5112C51.3889 36.4808 51.2654 36.4431 51.1319 36.4006C51.1159 36.3751 51.0986 36.3497 51.0763 36.3278C50.9664 36.2197 50.8032 36.1942 50.6686 36.2501C49.7863 35.955 48.6186 35.5179 47.8785 35.0904C47.9872 35.0552 48.0774 35.0261 48.1429 35.003C48.2529 35.0419 48.3221 35.0649 48.3406 35.071C48.3802 35.0844 48.4209 35.0904 48.4617 35.0904C48.4815 35.0904 48.5013 35.0892 48.521 35.0856C49.2772 34.9654 49.9568 34.6302 50.5178 34.2501V34.2526ZM47.0197 34.5841C46.4896 34.7346 45.8483 34.8913 45.3479 34.9301C45.2923 34.9338 45.2342 34.9168 45.186 34.8792L43.6094 33.6661C43.3956 33.3564 43.2226 33.0492 43.1139 32.7602C43.1139 32.7335 43.1139 32.7068 43.1139 32.6801C44.3545 33.4706 45.9249 34.1518 47.0197 34.5841ZM45.4085 35.6611C45.9546 35.6174 46.628 35.4571 47.1853 35.3005C47.8773 35.8129 49.1747 36.3205 50.1447 36.6556C49.8135 36.8851 49.3625 37.1171 48.9523 37.0904C48.6841 37.0211 46.78 36.5294 46.1721 36.3691C45.9806 36.2039 45.7013 35.9599 45.3887 35.6636C45.3949 35.6636 45.401 35.6636 45.4085 35.6636V35.6611ZM48.7941 37.8068C48.8139 37.8116 48.8324 37.8153 48.8522 37.8165C48.9078 37.8214 48.9622 37.8238 49.0178 37.8238C49.402 37.8238 49.7727 37.6999 50.0915 37.5396L51.9512 38.1249C51.9623 38.1286 51.9746 38.131 51.987 38.1334C52.1662 38.165 52.3898 38.1784 52.6345 38.1784C52.8581 38.1784 53.0991 38.1674 53.3413 38.1504C52.5282 38.4734 50.157 39.1559 47.5943 37.4947C48.2319 37.6599 48.7929 37.8056 48.7929 37.8056L48.7941 37.8068ZM52.1031 37.5967L50.7069 37.1572C50.8255 37.0673 50.9194 36.9884 50.9837 36.9325C51.2036 37.0017 51.3469 37.0442 51.3741 37.0515C51.4001 37.0588 51.4272 37.0624 51.4532 37.0624C52.459 37.0624 53.7268 36.0303 54.1049 35.7024C54.9439 35.8724 55.5839 35.9331 55.6469 35.9392C55.6556 35.9392 55.6642 35.9392 55.6729 35.9392C55.6791 35.9392 55.6865 35.9392 55.6927 35.9392C56.0708 35.9137 56.4205 35.8069 56.7318 35.6636C56.2672 36.2671 55.6383 36.9204 54.8314 37.4316C54.2185 37.5202 52.7753 37.7072 52.1031 37.5967ZM55.6766 35.3891C55.3887 35.36 52.4182 35.0346 50.9762 33.9138C51.4544 33.5301 51.8054 33.1524 51.987 32.9411C54.2161 33.1597 56.2166 33.2326 57.5511 33.2556C57.6907 33.3601 57.9267 33.6005 57.7685 33.949C57.7648 33.9563 57.6845 34.1518 57.5202 34.4554C57.1742 34.7844 56.4921 35.3236 55.6778 35.3891H55.6766ZM52.3898 32.232C54.7635 31.7718 56.9172 31.0444 57.0395 31.0032C57.0766 30.991 57.1099 30.9704 57.1384 30.9449C57.2829 30.8137 57.4139 30.6777 57.5325 30.5393C57.6536 30.5429 57.7735 30.5466 57.8921 30.5466C59.858 30.5466 61.489 30.0973 61.5632 30.0767C61.5867 30.0706 61.6101 30.0597 61.6311 30.0475C62.1699 29.7282 62.6394 29.3323 63.0385 28.9255C63.0435 28.9377 63.0484 28.9486 63.0534 28.9607C62.2922 30.4082 61.0244 32.1324 59.1747 32.5283C58.8238 32.5331 55.9176 32.5599 52.3898 32.2332V32.232ZM61.3754 29.5569C61.1307 29.6213 59.6554 29.988 57.9378 29.9953C58.5556 29.0263 58.6879 28.0476 58.7163 27.6323C61.5916 26.5941 63.7799 25.4539 63.9443 25.3677C63.9677 25.3555 63.9887 25.3397 64.0073 25.3215C64.1963 25.1394 64.3644 24.8917 64.5126 24.6087C64.3792 25.2559 64.1951 25.9857 63.9492 26.8114C63.5661 27.4599 62.6814 28.7676 61.3766 29.5557L61.3754 29.5569ZM63.6428 24.9014C63.1028 25.1794 56.722 28.4155 51.4915 28.7616C51.8301 28.2807 52.3577 27.4975 53.1917 26.2128L62.4269 22.8334C62.4528 22.8237 62.4788 22.8116 62.5023 22.7958C63.424 22.1984 64.0023 20.7582 64.2606 19.9702C64.5089 20.2567 64.7561 20.7813 64.8043 21.7394C64.6362 22.6804 64.2445 24.2882 63.6428 24.9014ZM62.1229 22.1619L42.5183 29.3372C42.5022 29.2959 42.4874 29.2522 42.4713 29.2121C44.677 28.0658 58.3814 20.9744 62.3997 19.6386C62.4071 19.6362 63.0163 19.4116 63.6057 19.5682C63.3746 20.3223 62.8445 21.6629 62.1217 22.1619H62.1229ZM37.7339 26.4374C38.2442 25.602 38.1293 24.6537 38.007 24.1412C38.2319 24.0647 38.4086 24.0222 38.4988 24.0028C38.5902 24.0222 38.7657 24.0647 38.9906 24.1412C38.8682 24.6537 38.7533 25.602 39.2636 26.4374C39.7023 27.1551 40.4943 27.6141 41.6126 27.8108C41.6076 27.8873 41.6039 27.9638 41.5953 28.0439C41.1146 28.1508 39.9482 28.3706 38.5025 28.3706H38.4988H38.4951C37.0494 28.3706 35.8817 28.1508 35.4023 28.0439C35.3936 27.9638 35.3887 27.8873 35.385 27.8108C36.5032 27.6141 37.2953 27.1551 37.7339 26.4374ZM35.406 27.0616C35.5369 25.9991 36.0905 25.2899 36.7009 24.8249C36.7256 24.8103 36.7491 24.7933 36.7713 24.7714C36.9505 24.6415 37.1322 24.5322 37.3088 24.4399C37.3892 24.8552 37.4324 25.5109 37.0926 26.0634C36.7874 26.5589 36.2203 26.8928 35.406 27.0616ZM39.6899 24.4399C39.8666 24.5322 40.0483 24.6415 40.2274 24.7714C40.2484 24.7921 40.2731 24.8103 40.2979 24.8249C40.9083 25.2899 41.4618 25.9979 41.5928 27.0616C40.7798 26.8928 40.2114 26.5601 39.9062 26.0634C39.5664 25.5109 39.6096 24.8552 39.6899 24.4399ZM41.7151 29.3347C41.8659 29.6954 42.0339 30.1859 42.1637 30.7955C42.0463 31.1428 41.489 32.5089 39.7282 33.3819C39.9383 32.3741 40.33 31.3917 40.8094 30.8793C41.3333 30.3195 41.5903 29.7719 41.7164 29.3347H41.7151ZM36.1906 30.8793C36.6688 31.3917 37.0605 32.3741 37.2718 33.3819C35.511 32.5076 34.9537 31.1428 34.8363 30.7955C34.9648 30.1859 35.1341 29.6966 35.2849 29.3347C35.4109 29.7731 35.6679 30.3195 36.1918 30.8793H36.1906ZM36.7405 30.3827C36.198 29.8022 36.0102 29.2509 35.9472 28.8952C36.5749 28.9984 37.4621 29.104 38.4975 29.104H38.5012H38.5049C39.5392 29.104 40.4276 28.9996 41.0553 28.8952C40.9923 29.2509 40.8045 29.8022 40.262 30.3827C39.2056 31.5132 38.5667 34.2259 38.9065 35.8396H38.5062H38.5025H38.4988H38.0984C38.4382 34.2246 37.7994 31.5132 36.7429 30.3827H36.7405ZM37.6622 36.5731H38.4963H38.5H38.5037H39.3378C39.3946 36.5731 39.4502 36.5609 39.5021 36.5354C40.3065 36.1481 41.2048 35.3139 41.8943 34.5841C42.0043 34.8561 42.1328 35.224 42.223 35.6405C42.223 35.6441 42.223 35.6466 42.2255 35.6502C42.3848 36.3909 42.4219 37.2822 42.0191 38.0618C41.4952 39.0782 40.3114 39.7217 38.5 39.9755C36.6898 39.7217 35.5048 39.0794 34.9809 38.0618C34.5793 37.2822 34.6164 36.3897 34.7746 35.6502C34.7746 35.6466 34.7758 35.6441 34.777 35.6405C34.8672 35.224 34.9957 34.8561 35.1057 34.5841C35.7964 35.3139 36.6935 36.1493 37.4979 36.5354C37.5486 36.5597 37.6054 36.5731 37.6622 36.5731ZM39.6183 35.6162C39.5466 35.2264 39.5429 34.7504 39.5935 34.2465C41.0256 33.6649 41.8659 32.7821 42.3416 32.0693C42.3614 32.3377 42.3725 32.6181 42.37 32.9144C42.05 33.3103 40.7649 34.8512 39.6183 35.6162ZM34.6572 32.0693C35.1329 32.7833 35.9719 33.6649 37.4052 34.2465C37.4559 34.7504 37.4522 35.2264 37.3805 35.6162C36.2338 34.8512 34.9488 33.3103 34.6288 32.9144C34.6263 32.6181 34.6374 32.3377 34.6572 32.0693ZM38.4444 40.7089C38.4617 40.7114 38.479 40.7126 38.4963 40.7126H38.4988H38.5012C38.5185 40.7126 38.5358 40.7126 38.5531 40.7089C40.5215 40.443 41.8671 39.7387 42.5578 38.6143C42.6653 38.8559 42.7901 39.1546 42.9211 39.5044C42.522 40.0726 40.9243 42.16 38.4988 42.9748C36.0744 42.16 34.4755 40.0739 34.0764 39.5044C34.2074 39.1546 34.3322 38.8559 34.4397 38.6143C35.1304 39.7387 36.476 40.443 38.4444 40.7089ZM38.3814 43.7119C38.4197 43.724 38.458 43.7301 38.4963 43.7301H38.4988H38.5012C38.5395 43.7301 38.5778 43.724 38.6162 43.7119C40.9021 42.9894 42.4899 41.2796 43.2127 40.3568C43.4154 41.0004 43.6081 41.7472 43.7465 42.5668C43.3832 43.1569 41.4927 46.036 38.4975 47.209C35.5036 46.036 33.6118 43.1569 33.2485 42.5668C33.3882 41.7472 33.5809 41.0004 33.7823 40.3568C34.5064 41.2796 36.093 42.9894 38.3789 43.7119H38.3814ZM38.3641 47.9449C38.4073 47.9606 38.4518 47.9692 38.4963 47.9692H38.5H38.5037C38.547 47.9692 38.5914 47.9619 38.6359 47.9449C41.2394 46.9783 43.0397 44.8776 43.8973 43.6839C43.9096 43.8187 43.922 43.9547 43.9306 44.0919C44.0245 45.5054 43.9133 46.8459 43.6007 48.1149C43.3486 48.4099 41.6571 50.2678 38.5 51.0862C35.3429 50.2678 33.6526 48.4099 33.3993 48.1149C33.0879 46.8459 32.9767 45.5041 33.0694 44.0919C33.078 43.9547 33.0904 43.8187 33.1027 43.6839C33.9603 44.8776 35.7606 46.9783 38.3641 47.9449ZM38.4036 51.8221C38.4345 51.8294 38.4654 51.833 38.4963 51.833H38.4988H38.5012C38.5321 51.833 38.563 51.8294 38.5939 51.8221C40.718 51.2902 42.2193 50.3297 43.1349 49.5805C42.5381 51.1141 41.6175 52.5288 40.3769 53.8159H38.5012H38.4975H38.4938H36.6181C35.3763 52.5288 34.457 51.1154 33.8602 49.5805C34.7758 50.3285 36.2783 51.289 38.4012 51.8221H38.4036ZM38.4963 54.366H38.5H38.5037H39.8197C39.4107 54.7497 38.9695 55.1201 38.5 55.4795C38.0305 55.1201 37.5906 54.7485 37.1803 54.366H38.4963ZM75.0662 56.8832L71.9141 60.9887C71.7695 61.1587 71.7695 61.4064 71.9141 61.5764L75.0662 65.4804H65.4035L65.6124 64.3972H67.2965C67.5461 64.3972 67.7525 64.2029 67.7624 63.9577L68.0577 56.882H75.0662V56.8832ZM74.137 47.4094C73.8825 51.0255 73.6193 54.7594 70.3028 55.9664H68.0935C68.0935 55.9446 68.0911 55.9227 68.0873 55.9009C68.4173 55.2294 68.7855 54.5093 69.1945 53.7431C69.8049 53.7309 71.1344 53.5682 72.1217 52.4826C73.2869 51.2004 73.5637 49.096 72.9446 46.2279C72.9199 46.1137 72.8421 46.019 72.7346 45.9704C72.6271 45.9231 72.5023 45.9267 72.3997 45.9826C70.2942 47.124 66.8134 50.1342 68.5173 53.4347C68.1219 54.1766 67.7648 54.8748 67.4423 55.5293H64.5781L71.8573 42.3931C71.9648 42.1989 71.9635 41.9657 71.8536 41.7727L64.7907 29.3797C64.5225 29.8508 64.2161 30.3122 64.0011 30.6207L70.5376 42.0908L63.1386 55.4419C63.1226 55.4698 63.1127 55.5001 63.1016 55.5293H39.6207C42.2971 53.2756 43.6501 50.7839 44.2643 48.4634C44.289 48.416 44.3013 48.3662 44.3038 48.3152C44.6967 46.7585 44.761 45.2831 44.6745 44.0154C44.5299 41.8953 43.9702 40.103 43.513 38.9494C43.9022 39.372 44.2321 39.7375 44.352 39.8856L45.857 47.3511C45.8595 47.3608 45.8632 47.3705 45.8656 47.379V48.297C45.8656 48.4998 46.0325 48.6637 46.2388 48.6637C46.4452 48.6637 46.612 48.4998 46.612 48.297V48.0614L47.2656 48.5824C47.3348 48.637 47.4176 48.6637 47.5004 48.6637C47.6091 48.6637 47.7166 48.6176 47.7908 48.5277C47.9205 48.3711 47.8958 48.1391 47.7364 48.0117L46.565 47.0779L45.0699 39.6622C45.06 39.6149 45.0415 39.5699 45.0143 39.5299C44.8401 39.2724 43.5179 37.8602 43.0299 37.3417C43.0768 37.0588 43.0916 36.7771 43.0842 36.5026C44.0604 37.3842 45.165 38.3921 45.4146 38.6459L47.3719 44.574C47.3929 44.6384 47.4324 44.6954 47.4856 44.7391L47.6153 46.1902C47.6277 46.3335 47.75 46.4416 47.8933 46.4416C47.902 46.4416 47.9094 46.4416 47.918 46.4416C48.0725 46.4282 48.1862 46.2947 48.1726 46.1441L48.0799 45.1047L49.596 46.0142C49.6566 46.0506 49.7233 46.0676 49.79 46.0676C49.9161 46.0676 50.0384 46.0056 50.1088 45.8915C50.2163 45.7191 50.1607 45.4932 49.9853 45.3876L48.0404 44.2206L46.1017 38.3459C46.0868 38.3022 46.0646 38.2621 46.0362 38.2269C45.831 37.9804 43.5822 35.9538 42.9335 35.3709C42.7889 34.7577 42.5788 34.2574 42.4479 33.9794C42.5541 33.8579 42.648 33.7474 42.7284 33.6515C43.6786 35.2811 45.773 36.9969 45.9657 37.1535C47.7759 38.8304 49.6257 39.2809 51.0912 39.2809C52.6493 39.2809 53.7737 38.7721 53.9615 38.6823C57.0988 37.5336 58.4111 34.3534 58.4593 34.2332C58.6285 33.8616 58.6001 33.5325 58.484 33.2629C58.5136 33.2629 58.547 33.2629 58.5754 33.2629C58.9436 33.2629 59.1722 33.2593 59.2291 33.2581C59.2525 33.2581 59.2748 33.2544 59.297 33.2508C61.2357 32.8549 62.5801 31.2812 63.4401 29.8156C63.6279 29.4792 63.9455 28.8296 64.2124 28.2698C64.4978 27.5922 64.6436 27.1017 64.6609 27.0373C65.8669 22.9986 65.8632 20.3988 64.651 19.312C64.5139 19.1894 64.3693 19.0947 64.2223 19.0194C64.2186 19.0182 64.2161 19.0157 64.2124 19.0145C63.2943 18.5494 62.2638 18.9052 62.139 18.9514C61.4606 19.1772 60.524 19.5573 59.4231 20.0406C59.4107 19.975 59.3897 19.9107 59.3551 19.8499L55.6222 13.3013C55.5073 13.0985 55.2886 12.9734 55.0526 12.9734H38.5025H38.4988H38.4951H21.9474C21.7114 12.9734 21.4927 13.0985 21.3778 13.3013L17.6449 19.8499C17.6103 19.9107 17.5893 19.9762 17.5769 20.0406C16.476 19.5585 15.5394 19.1772 14.861 18.9514C14.7375 18.9052 13.7057 18.5494 12.7876 19.0145C12.7839 19.0157 12.7814 19.0182 12.7777 19.0194C12.6307 19.0947 12.4861 19.1894 12.349 19.312C11.1368 20.3988 11.1343 22.9986 12.3391 27.0373C12.3576 27.1017 12.5059 27.6056 12.8012 28.2989C13.0533 28.8272 13.3461 29.427 13.5339 29.7682C14.3927 31.2472 15.7457 32.8501 17.7055 33.2508C17.7277 33.2556 17.7512 33.2581 17.7734 33.2581C17.8303 33.2581 18.0601 33.2629 18.4271 33.2629C18.4555 33.2629 18.4888 33.2629 18.5185 33.2629C18.4024 33.5325 18.3739 33.8616 18.5432 34.2332C18.5914 34.3534 19.9037 37.5324 23.0409 38.6823C23.2275 38.7721 24.3532 39.2809 25.9113 39.2809C27.378 39.2809 29.2278 38.8304 31.038 37.1535C31.2307 36.9969 33.3252 35.2811 34.2754 33.6515C34.3557 33.7474 34.4508 33.8579 34.5559 33.9794C34.4249 34.2562 34.2148 34.7577 34.0702 35.3709C33.4215 35.955 31.1714 37.9804 30.9676 38.2269C30.9379 38.2621 30.9157 38.3022 30.9021 38.3459L28.9634 44.2206L27.0185 45.3876C26.843 45.4932 26.7874 45.7191 26.8949 45.8915C26.9653 46.0044 27.0877 46.0676 27.2137 46.0676C27.2804 46.0676 27.3471 46.0506 27.4077 46.0142L28.9238 45.1047L28.8311 46.1441C28.8175 46.2959 28.9312 46.4294 29.0857 46.4416C29.0943 46.4416 29.1017 46.4416 29.1104 46.4416C29.2537 46.4416 29.3761 46.3335 29.3884 46.1902L29.5182 44.7391C29.57 44.6954 29.6096 44.6384 29.6318 44.574L31.5891 38.6459C31.8387 38.3921 32.9433 37.3842 33.9195 36.5026C33.9121 36.7771 33.9269 37.06 33.9739 37.3417C33.487 37.8602 32.1649 39.2724 31.9894 39.5299C31.9622 39.5699 31.9437 39.6149 31.9338 39.6622L30.4387 47.0779L29.2673 48.0117C29.1067 48.1391 29.0832 48.3699 29.2129 48.5277C29.2871 48.6176 29.3946 48.6637 29.5033 48.6637C29.5861 48.6637 29.6689 48.637 29.7381 48.5824L30.3917 48.0614V48.297C30.3917 48.4998 30.5586 48.6637 30.7649 48.6637C30.9713 48.6637 31.1381 48.4998 31.1381 48.297V47.379C31.1405 47.3693 31.1443 47.3608 31.1467 47.3511L32.6517 39.8856C32.7728 39.7363 33.1015 39.372 33.4907 38.9494C33.0335 40.1042 32.4738 41.8953 32.3292 44.0154C32.2427 45.2831 32.307 46.7585 32.6999 48.3152C32.7024 48.3662 32.7147 48.416 32.7395 48.4634C33.3536 50.7839 34.7066 53.2756 37.383 55.5293H13.9009C13.8898 55.5001 13.8787 55.471 13.8639 55.4419L6.46486 42.0908L13.0014 30.6231C12.7876 30.3147 12.4799 29.8532 12.2118 29.3821L5.1489 41.7739C5.03893 41.9657 5.0377 42.2001 5.1452 42.3944L12.4243 55.5305H9.5589C9.23639 54.876 8.8793 54.1778 8.48389 53.4359C10.1878 50.1354 6.70581 47.1252 4.60152 45.9838C4.49772 45.9279 4.37416 45.9231 4.26666 45.9716C4.15916 46.0202 4.08131 46.1149 4.0566 46.2291C3.43631 49.0972 3.71309 51.2016 4.87954 52.4839C5.86681 53.5694 7.19512 53.7309 7.80676 53.7443C8.21576 54.5105 8.58398 55.2306 8.91389 55.9021C8.91019 55.9239 8.90771 55.9458 8.90771 55.9677H6.69839C3.38071 54.7607 3.11752 51.0255 2.86421 47.4106C2.67022 44.6481 2.4824 42.0301 1.00458 40.4892C10.4881 35.3843 9.58732 28.3876 8.98803 23.7332C8.94478 23.3944 8.90277 23.0678 8.8657 22.7557C8.63958 20.7971 8.97691 19.2889 9.86904 18.275C10.8291 17.1834 12.1513 16.9964 12.4837 16.966C12.7345 17.0826 13.0125 17.1615 13.3066 17.1919C13.5179 17.2137 13.723 17.2247 13.9232 17.2247C14.9636 17.2247 15.831 16.9272 16.5094 16.3382C18.1874 14.8799 18.238 12.0773 18.2664 10.5716C18.2726 10.2656 18.2776 9.94865 18.301 9.85515C18.3257 9.75558 18.3529 9.66936 18.3838 9.59165C18.7347 8.71372 19.2006 8.18672 19.7677 8.02522C20.2682 7.88315 20.7649 8.05072 21.0652 8.19643C20.8403 8.64693 20.7562 9.16058 20.8353 9.68151C20.9651 10.5315 21.5199 11.2321 22.3193 11.5527C23.1991 11.9061 24.0888 11.8174 24.9648 11.2904C25.9311 10.7088 26.3141 9.50301 25.8384 8.54494C25.789 8.44415 25.7309 8.35065 25.6691 8.26686C25.548 8.10293 25.3145 8.06772 25.1477 8.18793C24.9809 8.30693 24.9451 8.53644 25.0674 8.70036C25.1045 8.75015 25.1378 8.80601 25.1687 8.86793C25.4776 9.48965 25.2181 10.2801 24.5768 10.6663C23.9046 11.0706 23.2596 11.1386 22.6035 10.8751C22.0413 10.6493 21.6669 10.1745 21.5755 9.57343C21.4791 8.94201 21.72 8.32394 22.2217 7.92079C25.2293 5.50072 29.6046 8.05436 29.6479 8.08108C29.6565 8.08594 29.6652 8.09079 29.6738 8.09444C34.7869 10.625 38.3159 12.1465 38.3505 12.1623C38.3666 12.1696 38.3839 12.1732 38.4012 12.1781C38.4333 12.1866 38.4666 12.1926 38.5 12.1926H38.5037H38.5074C38.5408 12.1926 38.5729 12.1866 38.6063 12.1781C38.6236 12.1732 38.6396 12.1696 38.6569 12.1623C38.6915 12.1477 42.2205 10.6262 47.3336 8.09444C47.3422 8.08958 47.3509 8.08594 47.3595 8.08108C47.4028 8.05436 51.7782 5.50072 54.7857 7.92079C55.2861 8.32394 55.5283 8.94201 55.4319 9.57343C55.3405 10.1745 54.9649 10.6493 54.4039 10.8751C53.7478 11.1386 53.1028 11.0706 52.4306 10.6663C51.7893 10.2801 51.5286 9.49086 51.8387 8.86793C51.8696 8.80601 51.9042 8.75015 51.94 8.70036C52.0611 8.53644 52.0253 8.30815 51.8597 8.18793C51.6929 8.06772 51.4606 8.10415 51.3383 8.26686C51.2753 8.35065 51.2184 8.44536 51.169 8.54494C50.692 9.50301 51.0763 10.7088 52.0426 11.2904C52.9187 11.8174 53.8083 11.9061 54.6881 11.5527C55.4876 11.2309 56.0424 10.5315 56.1721 9.68151C56.2512 9.16058 56.1671 8.64815 55.9423 8.19643C56.2425 8.05072 56.7393 7.88315 57.2397 8.02522C57.8068 8.18672 58.2727 8.71372 58.6236 9.59165C58.6545 9.66936 58.6817 9.75558 58.7064 9.85515C58.7299 9.94865 58.7348 10.2656 58.741 10.5716C58.7682 12.0773 58.8201 14.8799 60.4981 16.3382C61.1752 16.9272 62.0438 17.2247 63.0843 17.2247C63.2832 17.2247 63.4883 17.2137 63.7008 17.1919C63.9962 17.1615 64.2729 17.0814 64.5238 16.966C64.8561 16.9964 66.1783 17.1846 67.1384 18.275C68.0305 19.2889 68.3678 20.7971 68.1417 22.7557C68.1059 23.0678 68.0639 23.3944 68.0194 23.7332C67.4201 28.3876 66.5181 35.3855 76.0028 40.4892C74.525 42.0301 74.3384 44.6481 74.1432 47.4106L74.137 47.4094ZM70.482 50.6467C70.3016 50.5471 70.0742 50.6114 69.9742 50.7875C69.6183 51.4141 69.2834 52.0164 68.9659 52.5992C68.0787 49.9254 71.1369 47.6522 72.3157 46.8945C72.7469 49.2502 72.4973 50.9624 71.5694 51.9884C70.9614 52.6612 70.1657 52.8943 69.6084 52.9732C69.9285 52.3867 70.2658 51.7771 70.6254 51.1445C70.7254 50.9672 70.6612 50.745 70.482 50.6454V50.6467ZM6.37342 51.1457C6.73299 51.7784 7.07156 52.3867 7.39035 52.9744C6.83308 52.8967 6.03733 52.6624 5.42939 51.9896C4.50267 50.9636 4.25183 49.2514 4.68307 46.8957C5.86063 47.6534 8.91884 49.9254 8.03165 52.6004C7.71409 52.0188 7.37923 51.4153 7.02337 50.7887C6.92328 50.6114 6.69592 50.5483 6.51552 50.6479C6.33512 50.7462 6.27086 50.9696 6.37219 51.1469L6.37342 51.1457ZM15.4492 50.5544L17.934 51.9131C17.981 51.9386 18.0317 51.9508 18.0836 51.9508C18.1379 51.9508 18.1923 51.9362 18.2405 51.9083L20.5289 50.5617L22.863 51.8367C22.91 51.8622 22.9606 51.8743 23.0125 51.8743C23.0669 51.8743 23.1213 51.8597 23.1694 51.8318L25.6098 50.3953C25.7037 50.3394 25.7606 50.2399 25.7593 50.1318L25.7136 47.3377C25.7124 47.2309 25.6518 47.1313 25.5567 47.0791L23.2226 45.8029L23.1793 43.1824C23.1781 43.0756 23.1175 42.976 23.0224 42.9238L20.5375 41.565C20.4412 41.5128 20.325 41.514 20.2311 41.5699L17.7907 43.0064C17.6968 43.0622 17.64 43.1618 17.6412 43.2699L17.6844 45.8903L15.396 47.2369C15.3021 47.2928 15.2453 47.3924 15.2465 47.5004L15.2923 50.2945C15.2935 50.4014 15.354 50.5009 15.4492 50.5532V50.5544ZM25.102 47.5223L25.1415 49.9691L23.0051 51.2259L20.8291 50.0359L20.7896 47.5891L22.926 46.3323L25.102 47.5223ZM20.3917 42.1782L22.5677 43.3682L22.6072 45.815L20.4708 47.0718L19.3822 46.4768L18.2936 45.8818L18.2541 43.435L20.3905 42.177L20.3917 42.1782ZM17.9971 46.4088L19.0857 47.0038L20.1743 47.5988L20.2138 50.0456L18.0774 51.3024L15.9014 50.1124L15.8619 47.6656L17.9983 46.4076L17.9971 46.4088ZM55.6 76.5826C54.698 76.5826 53.9652 77.3039 53.9652 78.1891C53.9652 79.0743 54.6992 79.7956 55.6 79.7956C56.5008 79.7956 57.2347 79.0743 57.2347 78.1891C57.2347 77.3039 56.5008 76.5826 55.6 76.5826ZM55.6 79.0621C55.1094 79.0621 54.7116 78.6699 54.7116 78.1891C54.7116 77.7082 55.1107 77.316 55.6 77.316C56.0893 77.316 56.4884 77.7082 56.4884 78.1891C56.4884 78.6699 56.0893 79.0621 55.6 79.0621ZM57.5486 65.5253H59.0351L55.4641 71.9683C55.3492 72.1747 55.1292 72.3034 54.8907 72.3034H38.5012H38.4975H38.4938H22.108C21.8696 72.3034 21.6484 72.1747 21.5347 71.9683L17.9637 65.5253H19.4502L22.4948 71.0199H38.4963H38.5H38.5037H54.5052L57.5498 65.5253H57.5486ZM41.4458 76.0617C41.2567 76.0641 41.0986 76.2049 41.0788 76.3907C41.0751 76.4296 40.7143 80.2813 44.714 80.7792C44.7301 80.7816 44.7462 80.7816 44.761 80.7816C44.934 80.7816 45.0872 80.6626 45.1255 80.4926C45.1428 80.4124 45.5444 78.5121 44.462 77.2092C43.817 76.432 42.8062 76.0519 41.4458 76.0617ZM44.4447 79.9935C42.1142 79.526 41.8288 77.5941 41.8115 76.8024C42.7469 76.8509 43.4426 77.1424 43.8824 77.6706C44.4978 78.4089 44.4966 79.4568 44.4447 79.9935ZM66.3809 67.2763C65.0267 66.8282 63.7391 66.9047 62.5554 67.5034C59.7184 68.9374 58.4753 72.8559 58.4259 73.015C58.2171 73.6416 57.8464 74.4151 57.2595 74.545C56.6997 74.6677 56.0683 74.1674 55.8706 73.9634C55.8607 73.9524 55.8484 73.9439 55.8385 73.9354C55.8311 73.9294 55.8249 73.9221 55.8162 73.9172C55.8014 73.9075 55.7866 73.899 55.7717 73.8917C55.7656 73.8881 55.7594 73.8844 55.7532 73.882C55.7359 73.8747 55.7174 73.8687 55.6988 73.8638C55.6939 73.8626 55.6902 73.8602 55.6853 73.8589C55.6655 73.8541 55.6469 73.8529 55.6272 73.8504C55.6235 73.8504 55.6185 73.8492 55.6148 73.8492C55.5951 73.8492 55.5765 73.8492 55.5567 73.8517C55.5518 73.8517 55.5481 73.8517 55.5432 73.8517C55.5246 73.8541 55.5073 73.8589 55.49 73.865C55.4838 73.8662 55.4789 73.8674 55.4727 73.8699C55.4567 73.8759 55.4418 73.8832 55.427 73.8905C55.4196 73.8941 55.4134 73.8966 55.406 73.9002C55.3936 73.9075 55.3813 73.9172 55.3702 73.9269C55.3628 73.933 55.3541 73.9379 55.3467 73.9439C51.0776 77.7871 45.2453 74.7624 45.191 74.7332C44.7919 74.5134 44.4051 74.3277 44.032 74.1734C44.0245 74.1698 44.0171 74.1674 44.0097 74.1637C44.006 74.1625 44.0023 74.1613 43.9986 74.1601C42.4837 73.5396 41.1875 73.457 40.1348 73.9184C39.2945 74.2876 38.7891 74.9263 38.4975 75.4582C38.2047 74.9275 37.7005 74.2876 36.8603 73.9184C35.8088 73.457 34.5126 73.5396 32.9965 74.1601C32.9928 74.1613 32.9891 74.1613 32.9854 74.1637C32.9779 74.1674 32.9705 74.1698 32.9631 74.1734C32.5899 74.3277 32.2032 74.5134 31.8041 74.7332C31.7497 74.7612 25.9175 77.7859 21.6484 73.9439C21.641 73.9379 21.6323 73.933 21.6249 73.9269C21.6125 73.9172 21.6014 73.9075 21.5891 73.9002C21.5829 73.8966 21.5755 73.8941 21.5681 73.8905C21.5532 73.8832 21.5384 73.8747 21.5223 73.8699C21.5162 73.8674 21.5112 73.8674 21.505 73.865C21.4877 73.8601 21.4704 73.8553 21.4519 73.8517C21.447 73.8517 21.4433 73.8517 21.4383 73.8517C21.4185 73.8492 21.4 73.848 21.3802 73.8492C21.3765 73.8492 21.3716 73.8504 21.3679 73.8504C21.3481 73.8516 21.3283 73.8541 21.3098 73.8589C21.3049 73.8589 21.3012 73.8626 21.2962 73.8638C21.2777 73.8687 21.2591 73.8747 21.2419 73.882C21.2357 73.8844 21.2295 73.8893 21.2233 73.8917C21.2085 73.899 21.1924 73.9075 21.1788 73.9172C21.1714 73.9221 21.164 73.9294 21.1566 73.9354C21.1455 73.9452 21.1344 73.9524 21.1245 73.9634C20.928 74.1674 20.2954 74.6689 19.7356 74.545C19.1499 74.4151 18.778 73.6416 18.5692 73.015C18.5197 72.8559 17.2767 68.9374 14.4397 67.5034C13.2559 66.9047 11.9684 66.8282 10.6141 67.2763C9.69482 67.5799 9.01027 68.4918 8.90895 69.5446C8.81133 70.5646 9.26976 71.4595 10.1347 71.9391C10.65 72.2245 11.0738 72.3034 11.4099 72.2852C11.4766 72.9664 11.7608 74.6142 12.9495 75.4776C13.4413 75.8346 14.022 76.0131 14.6843 76.0131C15.0748 76.0131 15.4949 75.9511 15.941 75.8261C16.0979 75.7824 16.2079 75.6439 16.2116 75.4837C16.214 75.4144 16.2474 73.78 15.0649 72.641C14.436 72.0363 13.5908 71.6951 12.5516 71.6186C12.7419 71.3102 12.8173 70.9337 12.7394 70.5731C12.6381 70.1031 12.2971 69.7607 11.8275 69.6599C11.6261 69.6162 11.4272 69.7413 11.3827 69.9392C11.3382 70.1371 11.4655 70.3326 11.6669 70.3764C11.898 70.4261 11.9807 70.5937 12.0092 70.7249C12.0648 70.9859 11.956 71.2749 11.7423 71.4291C11.4593 71.6331 11.0182 71.5882 10.4992 71.3004C9.6318 70.8196 9.61573 69.9611 9.6491 69.6138C9.72324 68.8439 10.2051 68.1846 10.8501 67.9709C12.0067 67.5884 13.0978 67.6503 14.0962 68.1542C16.6552 69.4474 17.8438 73.1972 17.855 73.2348C18.2491 74.4187 18.8262 75.0975 19.5725 75.2602C19.6887 75.2857 19.8036 75.2967 19.916 75.2967C20.5388 75.2967 21.0849 74.9494 21.3951 74.7029C24.41 77.214 28.0292 76.7574 30.2089 76.1212C29.8221 76.5486 29.4984 76.9845 29.1895 77.3998C28.0304 78.9614 27.1161 80.1939 23.7329 79.8272C23.529 79.8053 23.3437 79.9498 23.3214 80.1514C23.2992 80.3529 23.4462 80.5339 23.6513 80.5557C24.0813 80.6019 24.4768 80.6237 24.8425 80.6237C27.7191 80.6237 28.7298 79.2625 29.7925 77.8309C30.608 76.7319 31.4519 75.5966 33.2522 74.8437C34.5769 74.2961 35.6803 74.2062 36.5428 74.5814C37.787 75.123 38.1219 76.4927 38.1244 76.5061C38.1639 76.6761 38.3184 76.7902 38.4877 76.7902H38.4914H38.4951C38.6656 76.7902 38.8188 76.6749 38.8583 76.5061C38.862 76.4927 39.1969 75.123 40.44 74.5814C41.3024 74.2062 42.4071 74.2949 43.7305 74.8437C45.532 75.5966 46.376 76.7319 47.1902 77.8309C48.2529 79.2625 49.2624 80.6237 52.1402 80.6237C52.506 80.6237 52.9014 80.6019 53.3314 80.5557C53.5365 80.5339 53.6835 80.3529 53.6613 80.1514C53.639 79.9498 53.4537 79.8053 53.2498 79.8272C49.8666 80.1939 48.9523 78.9614 47.7932 77.3998C47.4843 76.9833 47.1606 76.5474 46.7738 76.1212C48.9535 76.7574 52.5727 77.2128 55.5876 74.7029C55.8978 74.9494 56.4439 75.2967 57.0667 75.2967C57.1791 75.2967 57.2941 75.2857 57.4102 75.2602C58.1565 75.0975 58.7336 74.4175 59.1277 73.2348C59.1389 73.1972 60.3275 69.4474 62.8866 68.1542C63.8849 67.6491 64.9772 67.5872 66.1326 67.9709C66.7763 68.1846 67.2595 68.8439 67.3336 69.6138C67.367 69.9611 67.3509 70.8196 66.4835 71.3004C65.9658 71.587 65.5246 71.6331 65.2404 71.4291C65.0279 71.2761 64.9179 70.9859 64.9735 70.7249C65.002 70.5937 65.0835 70.4261 65.3158 70.3764C65.5172 70.3326 65.6445 70.1371 65.6 69.9392C65.5555 69.7413 65.3566 69.6162 65.1552 69.6599C64.6856 69.7619 64.3446 70.1031 64.2433 70.5731C64.1654 70.9337 64.242 71.3114 64.4311 71.6186C63.3919 71.6951 62.5468 72.0363 61.9178 72.641C60.7353 73.7788 60.7687 75.4144 60.7711 75.4837C60.7761 75.6439 60.8861 75.7824 61.0417 75.8261C61.4878 75.9511 61.9067 76.0131 62.2984 76.0131C62.9607 76.0131 63.5414 75.8346 64.0332 75.4776C65.2219 74.6142 65.5061 72.9664 65.5728 72.2852C65.9089 72.3034 66.3327 72.2245 66.848 71.9391C67.7142 71.4595 68.1726 70.5646 68.0738 69.5446C67.9724 68.4918 67.2867 67.5799 66.3686 67.2763H66.3809ZM14.5459 73.1668C15.2404 73.8359 15.4133 74.7454 15.4554 75.1922C14.6151 75.3731 13.9232 75.2711 13.3956 74.8886C12.5084 74.2439 12.2452 72.9628 12.1686 72.3338C13.1867 72.3472 13.985 72.6264 14.5459 73.1668ZM63.602 74.8886C63.0744 75.2711 62.3824 75.3731 61.5422 75.1922C61.5842 74.7441 61.7572 73.8359 62.4516 73.1668C63.0126 72.6264 63.812 72.3472 64.829 72.3338C64.7524 72.964 64.4904 74.2451 63.602 74.8886ZM63.6465 59.9651C63.6465 60.1679 63.4797 60.3318 63.2733 60.3318H61.0615C60.8552 60.3318 60.6884 60.1679 60.6884 59.9651C60.6884 59.7623 60.8552 59.5984 61.0615 59.5984H63.2733C63.4797 59.5984 63.6465 59.7623 63.6465 59.9651ZM71.2802 26.35C72.1822 26.35 72.915 25.6287 72.915 24.7435C72.915 23.8583 72.181 23.137 71.2802 23.137C70.3794 23.137 69.6455 23.8583 69.6455 24.7435C69.6455 25.6287 70.3794 26.35 71.2802 26.35ZM71.2802 23.8704C71.7708 23.8704 72.1687 24.2626 72.1687 24.7435C72.1687 25.2244 71.7695 25.6166 71.2802 25.6166C70.7909 25.6166 70.3918 25.2244 70.3918 24.7435C70.3918 24.2626 70.7909 23.8704 71.2802 23.8704ZM62.0624 10.8994C62.9644 10.8994 63.6971 10.1781 63.6971 9.29294C63.6971 8.40772 62.9632 7.68644 62.0624 7.68644C61.1616 7.68644 60.4276 8.40772 60.4276 9.29294C60.4276 10.1781 61.1616 10.8994 62.0624 10.8994ZM62.0624 8.41986C62.5529 8.41986 62.9508 8.81208 62.9508 9.29294C62.9508 9.77379 62.5517 10.166 62.0624 10.166C61.5731 10.166 61.174 9.77379 61.174 9.29294C61.174 8.81208 61.5731 8.41986 62.0624 8.41986ZM41.3593 8.12236C41.4754 8.12844 41.5891 8.13208 41.7003 8.13208C42.8519 8.13208 43.7428 7.79086 44.3545 7.11694C45.5345 5.81522 45.1898 3.77036 45.1749 3.68415C45.1403 3.48622 44.95 3.35265 44.7486 3.38422C40.4931 4.05208 41.0046 7.77265 41.0108 7.81029C41.0368 7.98272 41.1826 8.11265 41.3593 8.12236ZM44.4768 4.18201C44.5101 4.76122 44.4718 5.88686 43.7947 6.63122C43.3363 7.13636 42.6406 7.39379 41.7263 7.39865C41.7127 6.64944 41.9388 4.75272 44.4768 4.18201ZM70.2954 28.1897C70.2114 28.2589 70.1632 28.3621 70.1632 28.4701C70.1632 28.5369 70.2423 35.1196 75.6346 35.8032C75.6507 35.8057 75.6667 35.8069 75.6828 35.8069C75.8607 35.8069 76.0177 35.6806 76.0498 35.5033C76.0696 35.3904 76.5255 32.725 74.9723 30.5684C74.0295 29.257 72.5567 28.4301 70.5969 28.1083C70.4882 28.0901 70.3782 28.1204 70.2942 28.1909L70.2954 28.1897ZM74.3607 30.9849C75.4221 32.4554 75.4159 34.2599 75.3566 35.0151C71.662 34.2975 71.0368 30.2855 70.9318 28.917C72.4578 29.2497 73.6094 29.9443 74.3607 30.9849ZM38.3011 7.55165C38.3357 7.57229 38.3727 7.58565 38.411 7.59536H38.416C38.4432 7.60144 38.4691 7.60629 38.4963 7.60629H38.5H38.5037C38.5309 7.60629 38.5581 7.60144 38.584 7.59536H38.589C38.6273 7.58686 38.6643 7.57351 38.6989 7.55165C39.7332 6.92386 40.3448 6.08358 40.5203 5.05265C40.9169 2.70665 38.8781 0.236792 38.7916 0.133578C38.7249 0.053435 38.631 0.00850642 38.5334 0.0012207C38.5222 0.0012207 38.5111 0.0012207 38.5012 0.0012207C38.4901 0.0012207 38.479 0.0012207 38.4691 0.0012207C38.3715 0.00850642 38.2776 0.053435 38.2109 0.133578C38.1244 0.238006 36.0856 2.70786 36.4822 5.05265C36.6564 6.08358 37.2693 6.92508 38.3035 7.55165H38.3011ZM38.5 0.977506C39.019 1.71336 40.0433 3.40001 39.7838 4.93122C39.6578 5.67922 39.2229 6.30458 38.5 6.79879C37.7772 6.30579 37.3422 5.67922 37.2162 4.93122C36.9567 3.40001 37.981 1.71336 38.5 0.977506Z" fill="url(#paint0_linear_1_49)"/>
</g>
<path d="M90.056 62.575H94.764V64.17H91.959V65.853H94.379V67.437H91.959V70H90.056V62.575ZM101.101 62.575C101.328 62.575 101.523 62.6557 101.684 62.817C101.853 62.9783 101.937 63.1763 101.937 63.411V66.81C101.937 67.0373 101.853 67.2353 101.684 67.404C101.523 67.5653 101.328 67.646 101.101 67.646H101.046L101.959 70H100.089L99.1649 67.646H98.3509V70H96.4369V62.575H101.101ZM100.034 64.28C100.034 64.2507 100.023 64.225 100.001 64.203C99.9789 64.181 99.9569 64.17 99.9349 64.17H98.3509V66.15H99.9349C99.9569 66.15 99.9789 66.139 100.001 66.117C100.023 66.095 100.034 66.073 100.034 66.051V64.28ZM109.348 70H107.434V68.152H105.751V70H103.837V63.444C103.837 63.1873 103.917 62.9783 104.079 62.817C104.24 62.6557 104.449 62.575 104.706 62.575H108.479C108.735 62.575 108.944 62.6557 109.106 62.817C109.267 62.9783 109.348 63.1873 109.348 63.444V70ZM107.434 66.546V64.313C107.434 64.247 107.408 64.1957 107.357 64.159C107.313 64.115 107.25 64.093 107.17 64.093H105.982C105.916 64.093 105.861 64.115 105.817 64.159C105.773 64.203 105.751 64.2543 105.751 64.313V66.546H107.434ZM116.769 67.228V69.153C116.769 69.395 116.681 69.5967 116.505 69.758C116.336 69.9193 116.135 70 115.9 70H112.171C111.936 70 111.735 69.9193 111.566 69.758C111.405 69.5967 111.324 69.395 111.324 69.153V63.411C111.324 63.1837 111.405 62.9893 111.566 62.828C111.735 62.6593 111.936 62.575 112.171 62.575H115.9C116.135 62.575 116.336 62.6593 116.505 62.828C116.681 62.9893 116.769 63.1837 116.769 63.411V65.325H114.855V64.291C114.855 64.2543 114.844 64.225 114.822 64.203C114.8 64.181 114.778 64.17 114.756 64.17H113.359C113.278 64.17 113.238 64.2103 113.238 64.291V68.284C113.238 68.3573 113.278 68.394 113.359 68.394H114.756C114.778 68.394 114.8 68.3867 114.822 68.372C114.844 68.35 114.855 68.3207 114.855 68.284V67.228H116.769ZM123.174 62.575V64.181H121.491V70H119.577V64.181H117.894V62.575H123.174ZM126.495 70H124.592V62.575H126.495V70ZM133.23 62.575C133.486 62.575 133.695 62.6557 133.857 62.817C134.018 62.9783 134.099 63.1873 134.099 63.444V69.131C134.099 69.3877 134.018 69.5967 133.857 69.758C133.695 69.9193 133.486 70 133.23 70H129.413C129.156 70 128.947 69.9193 128.786 69.758C128.624 69.5967 128.544 69.3877 128.544 69.131V63.444C128.544 63.1873 128.624 62.9783 128.786 62.817C128.947 62.6557 129.156 62.575 129.413 62.575H133.23ZM132.185 64.302C132.185 64.2213 132.144 64.181 132.064 64.181H130.557C130.535 64.181 130.513 64.192 130.491 64.214C130.469 64.236 130.458 64.2653 130.458 64.302V68.295C130.458 68.3243 130.469 68.35 130.491 68.372C130.513 68.3867 130.535 68.394 130.557 68.394H132.064C132.144 68.394 132.185 68.361 132.185 68.295V64.302ZM137.9 65.919V70H136.14V62.575H137.9L140.122 66.667V62.575H141.882V70H140.067L137.9 65.919ZM149.438 70H147.524V68.152H145.841V70H143.927V63.444C143.927 63.1873 144.007 62.9783 144.169 62.817C144.33 62.6557 144.539 62.575 144.796 62.575H148.569C148.825 62.575 149.034 62.6557 149.196 62.817C149.357 62.9783 149.438 63.1873 149.438 63.444V70ZM147.524 66.546V64.313C147.524 64.247 147.498 64.1957 147.447 64.159C147.403 64.115 147.34 64.093 147.26 64.093H146.072C146.006 64.093 145.951 64.115 145.907 64.159C145.863 64.203 145.841 64.2543 145.841 64.313V66.546H147.524ZM151.48 62.575H153.383V68.394H155.748V70H151.48V62.575ZM159.28 70H157.377V62.575H159.28V70ZM163.694 64.181H161.032V62.575H165.982V64.104L163.144 68.394H166.092V70H160.922V68.471L163.694 64.181ZM167.701 62.575H172.552V64.17H169.604V65.468H172.156V67.052H169.604V68.394H172.552V70H167.701V62.575ZM178.397 62.575C178.602 62.575 178.796 62.6153 178.98 62.696C179.163 62.7693 179.321 62.8757 179.453 63.015C179.592 63.1543 179.702 63.3157 179.783 63.499C179.863 63.675 179.904 63.8693 179.904 64.082V68.482C179.904 68.6947 179.863 68.8927 179.783 69.076C179.702 69.2593 179.592 69.4207 179.453 69.56C179.321 69.6993 179.163 69.8093 178.98 69.89C178.796 69.9633 178.602 70 178.397 70H174.404V62.575H178.397ZM178.001 64.709C178.001 64.5477 177.949 64.4193 177.847 64.324C177.751 64.2213 177.623 64.17 177.462 64.17H176.318V68.394H177.462C177.623 68.394 177.751 68.3463 177.847 68.251C177.949 68.1483 178.001 68.0163 178.001 67.855V64.709ZM189.239 62.575C189.496 62.575 189.705 62.6557 189.866 62.817C190.028 62.9783 190.108 63.1873 190.108 63.444V69.131C190.108 69.3877 190.028 69.5967 189.866 69.758C189.705 69.9193 189.496 70 189.239 70H185.422C185.166 70 184.957 69.9193 184.795 69.758C184.634 69.5967 184.553 69.3877 184.553 69.131V63.444C184.553 63.1873 184.634 62.9783 184.795 62.817C184.957 62.6557 185.166 62.575 185.422 62.575H189.239ZM188.194 64.302C188.194 64.2213 188.154 64.181 188.073 64.181H186.566C186.544 64.181 186.522 64.192 186.5 64.214C186.478 64.236 186.467 64.2653 186.467 64.302V68.295C186.467 68.3243 186.478 68.35 186.5 68.372C186.522 68.3867 186.544 68.394 186.566 68.394H188.073C188.154 68.394 188.194 68.361 188.194 68.295V64.302ZM193.91 65.919V70H192.15V62.575H193.91L196.132 66.667V62.575H197.892V70H196.077L193.91 65.919ZM204.325 65.534V67.217H200.002V65.534H204.325ZM211.816 67.228V69.153C211.816 69.395 211.728 69.5967 211.552 69.758C211.383 69.9193 211.182 70 210.947 70H207.218C206.983 70 206.782 69.9193 206.613 69.758C206.452 69.5967 206.371 69.395 206.371 69.153V63.411C206.371 63.1837 206.452 62.9893 206.613 62.828C206.782 62.6593 206.983 62.575 207.218 62.575H210.947C211.182 62.575 211.383 62.6593 211.552 62.828C211.728 62.9893 211.816 63.1837 211.816 63.411V65.325H209.902V64.291C209.902 64.2543 209.891 64.225 209.869 64.203C209.847 64.181 209.825 64.17 209.803 64.17H208.406C208.325 64.17 208.285 64.2103 208.285 64.291V68.284C208.285 68.3573 208.325 68.394 208.406 68.394H209.803C209.825 68.394 209.847 68.3867 209.869 68.372C209.891 68.35 209.902 68.3207 209.902 68.284V67.228H211.816ZM219.277 70H217.363V67.052H215.548V70H213.634V62.575H215.548V65.413H217.363V62.575H219.277V70ZM226.835 70H224.921V68.152H223.238V70H221.324V63.444C221.324 63.1873 221.405 62.9783 221.566 62.817C221.727 62.6557 221.936 62.575 222.193 62.575H225.966C226.223 62.575 226.432 62.6557 226.593 62.817C226.754 62.9783 226.835 63.1873 226.835 63.444V70ZM224.921 66.546V64.313C224.921 64.247 224.895 64.1957 224.844 64.159C224.8 64.115 224.738 64.093 224.657 64.093H223.469C223.403 64.093 223.348 64.115 223.304 64.159C223.26 64.203 223.238 64.2543 223.238 64.313V66.546H224.921ZM230.78 70H228.877V62.575H230.78V70ZM234.655 65.919V70H232.895V62.575H234.655L236.877 66.667V62.575H238.637V70H236.822L234.655 65.919ZM248.086 62.575C248.314 62.575 248.508 62.6557 248.669 62.817C248.838 62.9783 248.922 63.1763 248.922 63.411V66.81C248.922 67.0373 248.838 67.2353 248.669 67.404C248.508 67.5653 248.314 67.646 248.086 67.646H248.031L248.944 70H247.074L246.15 67.646H245.336V70H243.422V62.575H248.086ZM247.019 64.28C247.019 64.2507 247.008 64.225 246.986 64.203C246.964 64.181 246.942 64.17 246.92 64.17H245.336V66.15H246.92C246.942 66.15 246.964 66.139 246.986 66.117C247.008 66.095 247.019 66.073 247.019 66.051V64.28ZM250.888 62.575H255.739V64.17H252.791V65.468H255.343V67.052H252.791V68.394H255.739V70H250.888V62.575ZM263.036 70H261.122V68.152H259.439V70H257.525V63.444C257.525 63.1873 257.606 62.9783 257.767 62.817C257.928 62.6557 258.137 62.575 258.394 62.575H262.167C262.424 62.575 262.633 62.6557 262.794 62.817C262.955 62.9783 263.036 63.1873 263.036 63.444V70ZM261.122 66.546V64.313C261.122 64.247 261.096 64.1957 261.045 64.159C261.001 64.115 260.939 64.093 260.858 64.093H259.67C259.604 64.093 259.549 64.115 259.505 64.159C259.461 64.203 259.439 64.2543 259.439 64.313V66.546H261.122ZM265.078 62.575H266.981V68.394H269.346V70H265.078V62.575ZM273.651 62.575H278.502V64.17H275.554V65.468H278.106V67.052H275.554V68.394H278.502V70H273.651V62.575ZM280.2 68.394H282.983C283.064 68.394 283.104 68.361 283.104 68.295V67.217C283.104 67.151 283.064 67.118 282.983 67.118H281.069C280.812 67.118 280.603 67.0373 280.442 66.876C280.281 66.7147 280.2 66.5057 280.2 66.249V63.444C280.2 63.1873 280.281 62.9783 280.442 62.817C280.603 62.6557 280.812 62.575 281.069 62.575H284.908V64.17H282.224C282.151 64.17 282.114 64.2103 282.114 64.291V65.38C282.114 65.402 282.121 65.424 282.136 65.446C282.158 65.468 282.187 65.479 282.224 65.479H284.138C284.395 65.479 284.604 65.5597 284.765 65.721C284.926 65.8823 285.007 66.0913 285.007 66.348V69.131C285.007 69.3877 284.926 69.5967 284.765 69.758C284.604 69.9193 284.395 70 284.138 70H280.2V68.394ZM291.504 62.575V64.181H289.821V70H287.907V64.181H286.224V62.575H291.504ZM298.367 70H296.453V68.152H294.77V70H292.856V63.444C292.856 63.1873 292.937 62.9783 293.098 62.817C293.26 62.6557 293.469 62.575 293.725 62.575H297.498C297.755 62.575 297.964 62.6557 298.125 62.817C298.287 62.9783 298.367 63.1873 298.367 63.444V70ZM296.453 66.546V64.313C296.453 64.247 296.428 64.1957 296.376 64.159C296.332 64.115 296.27 64.093 296.189 64.093H295.001C294.935 64.093 294.88 64.115 294.836 64.159C294.792 64.203 294.77 64.2543 294.77 64.313V66.546H296.453ZM304.997 62.575V64.181H303.314V70H301.4V64.181H299.717V62.575H304.997ZM306.414 62.575H311.265V64.17H308.317V65.468H310.869V67.052H308.317V68.394H311.265V70H306.414V62.575ZM317.695 70H315.792V62.575H317.695V70ZM321.57 65.919V70H319.81V62.575H321.57L323.792 66.667V62.575H325.552V70H323.737L321.57 65.919ZM333.151 62.575L330.94 70H329.092L326.936 62.575H328.982L330.016 67.294L331.259 62.575H333.151ZM334.537 62.575H339.388V64.17H336.44V65.468H338.992V67.052H336.44V68.394H339.388V70H334.537V62.575ZM341.087 68.394H343.87C343.95 68.394 343.991 68.361 343.991 68.295V67.217C343.991 67.151 343.95 67.118 343.87 67.118H341.956C341.699 67.118 341.49 67.0373 341.329 66.876C341.167 66.7147 341.087 66.5057 341.087 66.249V63.444C341.087 63.1873 341.167 62.9783 341.329 62.817C341.49 62.6557 341.699 62.575 341.956 62.575H345.795V64.17H343.111C343.037 64.17 343.001 64.2103 343.001 64.291V65.38C343.001 65.402 343.008 65.424 343.023 65.446C343.045 65.468 343.074 65.479 343.111 65.479H345.025C345.281 65.479 345.49 65.5597 345.652 65.721C345.813 65.8823 345.894 66.0913 345.894 66.348V69.131C345.894 69.3877 345.813 69.5967 345.652 69.758C345.49 69.9193 345.281 70 345.025 70H341.087V68.394ZM352.391 62.575V64.181H350.708V70H348.794V64.181H347.111V62.575H352.391ZM355.712 70H353.809V62.575H355.712V70ZM359.587 65.919V70H357.827V62.575H359.587L361.809 66.667V62.575H363.569V70H361.754L359.587 65.919ZM368.286 65.446H371.652V67.019H371.036V69.153C371.036 69.395 370.952 69.5967 370.783 69.758C370.622 69.9193 370.424 70 370.189 70H366.471C366.236 70 366.035 69.9193 365.866 69.758C365.697 69.5967 365.613 69.395 365.613 69.153V63.411C365.613 63.1837 365.697 62.9893 365.866 62.828C366.035 62.6593 366.236 62.575 366.471 62.575H371.069V64.17H367.626C367.553 64.17 367.516 64.2103 367.516 64.291V68.273C367.516 68.3463 367.553 68.383 367.626 68.383H369.166C369.247 68.383 369.287 68.3463 369.287 68.273V67.019H368.286V65.446Z" fill="white"/>
<defs>
<linearGradient id="paint0_linear_1_49" x1="38.8917" y1="71.0904" x2="37.9597" y2="-4.57461" gradientUnits="userSpaceOnUse">
<stop offset="0.18" stop-color="#A76F10"/>
<stop offset="0.34" stop-color="#B47F1D"/>
<stop offset="0.57" stop-color="#C2902B"/>
<stop offset="0.74" stop-color="#C89730"/>
</linearGradient>
<clipPath id="clip0_1_49">
<rect width="77" height="85" fill="white"/>
</clipPath>
</defs>
</svg>
